%TF.GenerationSoftware,KiCad,Pcbnew,10.0.1*%
%TF.CreationDate,2026-04-27T13:36:35-04:00*%
%TF.ProjectId,MAG PCB FINAL,4d414720-5043-4422-9046-494e414c2e6b,rev?*%
%TF.SameCoordinates,Original*%
%TF.FileFunction,Copper,L2,Bot*%
%TF.FilePolarity,Positive*%
%FSLAX46Y46*%
G04 Gerber Fmt 4.6, Leading zero omitted, Abs format (unit mm)*
G04 Created by KiCad (PCBNEW 10.0.1) date 2026-04-27 13:36:35*
%MOMM*%
%LPD*%
G01*
G04 APERTURE LIST*
%ADD10C,0.150000*%
%ADD11C,0.300000*%
%ADD12C,0.400000*%
%TA.AperFunction,ViaPad*%
%ADD13C,0.600000*%
%TD*%
%TA.AperFunction,Conductor*%
%ADD14C,0.300000*%
%TD*%
%TA.AperFunction,Conductor*%
%ADD15C,0.400000*%
%TD*%
G04 APERTURE END LIST*
D10*
X177002200Y-166007200D02*
X285002200Y-166007200D01*
X285002200Y-198007200D01*
X177002200Y-198007200D01*
X177002200Y-166007200D01*
X10000000Y-10000000D02*
X287002200Y-10000000D01*
X287002200Y-200007200D01*
X10000000Y-200007200D01*
X10000000Y-10000000D01*
X12000000Y-12000000D02*
X285002200Y-12000000D01*
X285002200Y-198007200D01*
X12000000Y-198007200D01*
X12000000Y-12000000D01*
X60000000Y-12000000D02*
X60000000Y-10000000D01*
X110000000Y-12000000D02*
X110000000Y-10000000D01*
X160000000Y-12000000D02*
X160000000Y-10000000D01*
X210000000Y-12000000D02*
X210000000Y-10000000D01*
X260000000Y-12000000D02*
X260000000Y-10000000D01*
X36089160Y-11593604D02*
X35346303Y-11593604D01*
X35717731Y-11593604D02*
X35717731Y-10293604D01*
X35717731Y-10293604D02*
X35593922Y-10479319D01*
X35593922Y-10479319D02*
X35470112Y-10603128D01*
X35470112Y-10603128D02*
X35346303Y-10665033D01*
X85346303Y-10417414D02*
X85408207Y-10355509D01*
X85408207Y-10355509D02*
X85532017Y-10293604D01*
X85532017Y-10293604D02*
X85841541Y-10293604D01*
X85841541Y-10293604D02*
X85965350Y-10355509D01*
X85965350Y-10355509D02*
X86027255Y-10417414D01*
X86027255Y-10417414D02*
X86089160Y-10541223D01*
X86089160Y-10541223D02*
X86089160Y-10665033D01*
X86089160Y-10665033D02*
X86027255Y-10850747D01*
X86027255Y-10850747D02*
X85284398Y-11593604D01*
X85284398Y-11593604D02*
X86089160Y-11593604D01*
X135284398Y-10293604D02*
X136089160Y-10293604D01*
X136089160Y-10293604D02*
X135655826Y-10788842D01*
X135655826Y-10788842D02*
X135841541Y-10788842D01*
X135841541Y-10788842D02*
X135965350Y-10850747D01*
X135965350Y-10850747D02*
X136027255Y-10912652D01*
X136027255Y-10912652D02*
X136089160Y-11036461D01*
X136089160Y-11036461D02*
X136089160Y-11345985D01*
X136089160Y-11345985D02*
X136027255Y-11469795D01*
X136027255Y-11469795D02*
X135965350Y-11531700D01*
X135965350Y-11531700D02*
X135841541Y-11593604D01*
X135841541Y-11593604D02*
X135470112Y-11593604D01*
X135470112Y-11593604D02*
X135346303Y-11531700D01*
X135346303Y-11531700D02*
X135284398Y-11469795D01*
X185965350Y-10726938D02*
X185965350Y-11593604D01*
X185655826Y-10231700D02*
X185346303Y-11160271D01*
X185346303Y-11160271D02*
X186151064Y-11160271D01*
X236027255Y-10293604D02*
X235408207Y-10293604D01*
X235408207Y-10293604D02*
X235346303Y-10912652D01*
X235346303Y-10912652D02*
X235408207Y-10850747D01*
X235408207Y-10850747D02*
X235532017Y-10788842D01*
X235532017Y-10788842D02*
X235841541Y-10788842D01*
X235841541Y-10788842D02*
X235965350Y-10850747D01*
X235965350Y-10850747D02*
X236027255Y-10912652D01*
X236027255Y-10912652D02*
X236089160Y-11036461D01*
X236089160Y-11036461D02*
X236089160Y-11345985D01*
X236089160Y-11345985D02*
X236027255Y-11469795D01*
X236027255Y-11469795D02*
X235965350Y-11531700D01*
X235965350Y-11531700D02*
X235841541Y-11593604D01*
X235841541Y-11593604D02*
X235532017Y-11593604D01*
X235532017Y-11593604D02*
X235408207Y-11531700D01*
X235408207Y-11531700D02*
X235346303Y-11469795D01*
X285965350Y-10293604D02*
X285717731Y-10293604D01*
X285717731Y-10293604D02*
X285593922Y-10355509D01*
X285593922Y-10355509D02*
X285532017Y-10417414D01*
X285532017Y-10417414D02*
X285408207Y-10603128D01*
X285408207Y-10603128D02*
X285346303Y-10850747D01*
X285346303Y-10850747D02*
X285346303Y-11345985D01*
X285346303Y-11345985D02*
X285408207Y-11469795D01*
X285408207Y-11469795D02*
X285470112Y-11531700D01*
X285470112Y-11531700D02*
X285593922Y-11593604D01*
X285593922Y-11593604D02*
X285841541Y-11593604D01*
X285841541Y-11593604D02*
X285965350Y-11531700D01*
X285965350Y-11531700D02*
X286027255Y-11469795D01*
X286027255Y-11469795D02*
X286089160Y-11345985D01*
X286089160Y-11345985D02*
X286089160Y-11036461D01*
X286089160Y-11036461D02*
X286027255Y-10912652D01*
X286027255Y-10912652D02*
X285965350Y-10850747D01*
X285965350Y-10850747D02*
X285841541Y-10788842D01*
X285841541Y-10788842D02*
X285593922Y-10788842D01*
X285593922Y-10788842D02*
X285470112Y-10850747D01*
X285470112Y-10850747D02*
X285408207Y-10912652D01*
X285408207Y-10912652D02*
X285346303Y-11036461D01*
X60000000Y-198007200D02*
X60000000Y-200007200D01*
X110000000Y-198007200D02*
X110000000Y-200007200D01*
X160000000Y-198007200D02*
X160000000Y-200007200D01*
X210000000Y-198007200D02*
X210000000Y-200007200D01*
X260000000Y-198007200D02*
X260000000Y-200007200D01*
X36089160Y-199600804D02*
X35346303Y-199600804D01*
X35717731Y-199600804D02*
X35717731Y-198300804D01*
X35717731Y-198300804D02*
X35593922Y-198486519D01*
X35593922Y-198486519D02*
X35470112Y-198610328D01*
X35470112Y-198610328D02*
X35346303Y-198672233D01*
X85346303Y-198424614D02*
X85408207Y-198362709D01*
X85408207Y-198362709D02*
X85532017Y-198300804D01*
X85532017Y-198300804D02*
X85841541Y-198300804D01*
X85841541Y-198300804D02*
X85965350Y-198362709D01*
X85965350Y-198362709D02*
X86027255Y-198424614D01*
X86027255Y-198424614D02*
X86089160Y-198548423D01*
X86089160Y-198548423D02*
X86089160Y-198672233D01*
X86089160Y-198672233D02*
X86027255Y-198857947D01*
X86027255Y-198857947D02*
X85284398Y-199600804D01*
X85284398Y-199600804D02*
X86089160Y-199600804D01*
X135284398Y-198300804D02*
X136089160Y-198300804D01*
X136089160Y-198300804D02*
X135655826Y-198796042D01*
X135655826Y-198796042D02*
X135841541Y-198796042D01*
X135841541Y-198796042D02*
X135965350Y-198857947D01*
X135965350Y-198857947D02*
X136027255Y-198919852D01*
X136027255Y-198919852D02*
X136089160Y-199043661D01*
X136089160Y-199043661D02*
X136089160Y-199353185D01*
X136089160Y-199353185D02*
X136027255Y-199476995D01*
X136027255Y-199476995D02*
X135965350Y-199538900D01*
X135965350Y-199538900D02*
X135841541Y-199600804D01*
X135841541Y-199600804D02*
X135470112Y-199600804D01*
X135470112Y-199600804D02*
X135346303Y-199538900D01*
X135346303Y-199538900D02*
X135284398Y-199476995D01*
X185965350Y-198734138D02*
X185965350Y-199600804D01*
X185655826Y-198238900D02*
X185346303Y-199167471D01*
X185346303Y-199167471D02*
X186151064Y-199167471D01*
X236027255Y-198300804D02*
X235408207Y-198300804D01*
X235408207Y-198300804D02*
X235346303Y-198919852D01*
X235346303Y-198919852D02*
X235408207Y-198857947D01*
X235408207Y-198857947D02*
X235532017Y-198796042D01*
X235532017Y-198796042D02*
X235841541Y-198796042D01*
X235841541Y-198796042D02*
X235965350Y-198857947D01*
X235965350Y-198857947D02*
X236027255Y-198919852D01*
X236027255Y-198919852D02*
X236089160Y-199043661D01*
X236089160Y-199043661D02*
X236089160Y-199353185D01*
X236089160Y-199353185D02*
X236027255Y-199476995D01*
X236027255Y-199476995D02*
X235965350Y-199538900D01*
X235965350Y-199538900D02*
X235841541Y-199600804D01*
X235841541Y-199600804D02*
X235532017Y-199600804D01*
X235532017Y-199600804D02*
X235408207Y-199538900D01*
X235408207Y-199538900D02*
X235346303Y-199476995D01*
X285965350Y-198300804D02*
X285717731Y-198300804D01*
X285717731Y-198300804D02*
X285593922Y-198362709D01*
X285593922Y-198362709D02*
X285532017Y-198424614D01*
X285532017Y-198424614D02*
X285408207Y-198610328D01*
X285408207Y-198610328D02*
X285346303Y-198857947D01*
X285346303Y-198857947D02*
X285346303Y-199353185D01*
X285346303Y-199353185D02*
X285408207Y-199476995D01*
X285408207Y-199476995D02*
X285470112Y-199538900D01*
X285470112Y-199538900D02*
X285593922Y-199600804D01*
X285593922Y-199600804D02*
X285841541Y-199600804D01*
X285841541Y-199600804D02*
X285965350Y-199538900D01*
X285965350Y-199538900D02*
X286027255Y-199476995D01*
X286027255Y-199476995D02*
X286089160Y-199353185D01*
X286089160Y-199353185D02*
X286089160Y-199043661D01*
X286089160Y-199043661D02*
X286027255Y-198919852D01*
X286027255Y-198919852D02*
X285965350Y-198857947D01*
X285965350Y-198857947D02*
X285841541Y-198796042D01*
X285841541Y-198796042D02*
X285593922Y-198796042D01*
X285593922Y-198796042D02*
X285470112Y-198857947D01*
X285470112Y-198857947D02*
X285408207Y-198919852D01*
X285408207Y-198919852D02*
X285346303Y-199043661D01*
X10000000Y-60000000D02*
X12000000Y-60000000D01*
X10000000Y-110000000D02*
X12000000Y-110000000D01*
X10000000Y-160000000D02*
X12000000Y-160000000D01*
X10690476Y-35222176D02*
X11309523Y-35222176D01*
X10566666Y-35593604D02*
X10999999Y-34293604D01*
X10999999Y-34293604D02*
X11433333Y-35593604D01*
X11092857Y-84912652D02*
X11278571Y-84974557D01*
X11278571Y-84974557D02*
X11340476Y-85036461D01*
X11340476Y-85036461D02*
X11402380Y-85160271D01*
X11402380Y-85160271D02*
X11402380Y-85345985D01*
X11402380Y-85345985D02*
X11340476Y-85469795D01*
X11340476Y-85469795D02*
X11278571Y-85531700D01*
X11278571Y-85531700D02*
X11154761Y-85593604D01*
X11154761Y-85593604D02*
X10659523Y-85593604D01*
X10659523Y-85593604D02*
X10659523Y-84293604D01*
X10659523Y-84293604D02*
X11092857Y-84293604D01*
X11092857Y-84293604D02*
X11216666Y-84355509D01*
X11216666Y-84355509D02*
X11278571Y-84417414D01*
X11278571Y-84417414D02*
X11340476Y-84541223D01*
X11340476Y-84541223D02*
X11340476Y-84665033D01*
X11340476Y-84665033D02*
X11278571Y-84788842D01*
X11278571Y-84788842D02*
X11216666Y-84850747D01*
X11216666Y-84850747D02*
X11092857Y-84912652D01*
X11092857Y-84912652D02*
X10659523Y-84912652D01*
X11402380Y-135469795D02*
X11340476Y-135531700D01*
X11340476Y-135531700D02*
X11154761Y-135593604D01*
X11154761Y-135593604D02*
X11030952Y-135593604D01*
X11030952Y-135593604D02*
X10845238Y-135531700D01*
X10845238Y-135531700D02*
X10721428Y-135407890D01*
X10721428Y-135407890D02*
X10659523Y-135284080D01*
X10659523Y-135284080D02*
X10597619Y-135036461D01*
X10597619Y-135036461D02*
X10597619Y-134850747D01*
X10597619Y-134850747D02*
X10659523Y-134603128D01*
X10659523Y-134603128D02*
X10721428Y-134479319D01*
X10721428Y-134479319D02*
X10845238Y-134355509D01*
X10845238Y-134355509D02*
X11030952Y-134293604D01*
X11030952Y-134293604D02*
X11154761Y-134293604D01*
X11154761Y-134293604D02*
X11340476Y-134355509D01*
X11340476Y-134355509D02*
X11402380Y-134417414D01*
X10659523Y-185593604D02*
X10659523Y-184293604D01*
X10659523Y-184293604D02*
X10969047Y-184293604D01*
X10969047Y-184293604D02*
X11154761Y-184355509D01*
X11154761Y-184355509D02*
X11278571Y-184479319D01*
X11278571Y-184479319D02*
X11340476Y-184603128D01*
X11340476Y-184603128D02*
X11402380Y-184850747D01*
X11402380Y-184850747D02*
X11402380Y-185036461D01*
X11402380Y-185036461D02*
X11340476Y-185284080D01*
X11340476Y-185284080D02*
X11278571Y-185407890D01*
X11278571Y-185407890D02*
X11154761Y-185531700D01*
X11154761Y-185531700D02*
X10969047Y-185593604D01*
X10969047Y-185593604D02*
X10659523Y-185593604D01*
X287002200Y-60000000D02*
X285002200Y-60000000D01*
X287002200Y-110000000D02*
X285002200Y-110000000D01*
X287002200Y-160000000D02*
X285002200Y-160000000D01*
X285692676Y-35222176D02*
X286311723Y-35222176D01*
X285568866Y-35593604D02*
X286002199Y-34293604D01*
X286002199Y-34293604D02*
X286435533Y-35593604D01*
X286095057Y-84912652D02*
X286280771Y-84974557D01*
X286280771Y-84974557D02*
X286342676Y-85036461D01*
X286342676Y-85036461D02*
X286404580Y-85160271D01*
X286404580Y-85160271D02*
X286404580Y-85345985D01*
X286404580Y-85345985D02*
X286342676Y-85469795D01*
X286342676Y-85469795D02*
X286280771Y-85531700D01*
X286280771Y-85531700D02*
X286156961Y-85593604D01*
X286156961Y-85593604D02*
X285661723Y-85593604D01*
X285661723Y-85593604D02*
X285661723Y-84293604D01*
X285661723Y-84293604D02*
X286095057Y-84293604D01*
X286095057Y-84293604D02*
X286218866Y-84355509D01*
X286218866Y-84355509D02*
X286280771Y-84417414D01*
X286280771Y-84417414D02*
X286342676Y-84541223D01*
X286342676Y-84541223D02*
X286342676Y-84665033D01*
X286342676Y-84665033D02*
X286280771Y-84788842D01*
X286280771Y-84788842D02*
X286218866Y-84850747D01*
X286218866Y-84850747D02*
X286095057Y-84912652D01*
X286095057Y-84912652D02*
X285661723Y-84912652D01*
X286404580Y-135469795D02*
X286342676Y-135531700D01*
X286342676Y-135531700D02*
X286156961Y-135593604D01*
X286156961Y-135593604D02*
X286033152Y-135593604D01*
X286033152Y-135593604D02*
X285847438Y-135531700D01*
X285847438Y-135531700D02*
X285723628Y-135407890D01*
X285723628Y-135407890D02*
X285661723Y-135284080D01*
X285661723Y-135284080D02*
X285599819Y-135036461D01*
X285599819Y-135036461D02*
X285599819Y-134850747D01*
X285599819Y-134850747D02*
X285661723Y-134603128D01*
X285661723Y-134603128D02*
X285723628Y-134479319D01*
X285723628Y-134479319D02*
X285847438Y-134355509D01*
X285847438Y-134355509D02*
X286033152Y-134293604D01*
X286033152Y-134293604D02*
X286156961Y-134293604D01*
X286156961Y-134293604D02*
X286342676Y-134355509D01*
X286342676Y-134355509D02*
X286404580Y-134417414D01*
X285661723Y-185593604D02*
X285661723Y-184293604D01*
X285661723Y-184293604D02*
X285971247Y-184293604D01*
X285971247Y-184293604D02*
X286156961Y-184355509D01*
X286156961Y-184355509D02*
X286280771Y-184479319D01*
X286280771Y-184479319D02*
X286342676Y-184603128D01*
X286342676Y-184603128D02*
X286404580Y-184850747D01*
X286404580Y-184850747D02*
X286404580Y-185036461D01*
X286404580Y-185036461D02*
X286342676Y-185284080D01*
X286342676Y-185284080D02*
X286280771Y-185407890D01*
X286280771Y-185407890D02*
X286156961Y-185531700D01*
X286156961Y-185531700D02*
X285971247Y-185593604D01*
X285971247Y-185593604D02*
X285661723Y-185593604D01*
X200458026Y-193793328D02*
X200458026Y-192293328D01*
X200458026Y-192293328D02*
X200815169Y-192293328D01*
X200815169Y-192293328D02*
X201029455Y-192364757D01*
X201029455Y-192364757D02*
X201172312Y-192507614D01*
X201172312Y-192507614D02*
X201243741Y-192650471D01*
X201243741Y-192650471D02*
X201315169Y-192936185D01*
X201315169Y-192936185D02*
X201315169Y-193150471D01*
X201315169Y-193150471D02*
X201243741Y-193436185D01*
X201243741Y-193436185D02*
X201172312Y-193579042D01*
X201172312Y-193579042D02*
X201029455Y-193721900D01*
X201029455Y-193721900D02*
X200815169Y-193793328D01*
X200815169Y-193793328D02*
X200458026Y-193793328D01*
X202600884Y-193793328D02*
X202600884Y-193007614D01*
X202600884Y-193007614D02*
X202529455Y-192864757D01*
X202529455Y-192864757D02*
X202386598Y-192793328D01*
X202386598Y-192793328D02*
X202100884Y-192793328D01*
X202100884Y-192793328D02*
X201958026Y-192864757D01*
X202600884Y-193721900D02*
X202458026Y-193793328D01*
X202458026Y-193793328D02*
X202100884Y-193793328D01*
X202100884Y-193793328D02*
X201958026Y-193721900D01*
X201958026Y-193721900D02*
X201886598Y-193579042D01*
X201886598Y-193579042D02*
X201886598Y-193436185D01*
X201886598Y-193436185D02*
X201958026Y-193293328D01*
X201958026Y-193293328D02*
X202100884Y-193221900D01*
X202100884Y-193221900D02*
X202458026Y-193221900D01*
X202458026Y-193221900D02*
X202600884Y-193150471D01*
X203100884Y-192793328D02*
X203672312Y-192793328D01*
X203315169Y-192293328D02*
X203315169Y-193579042D01*
X203315169Y-193579042D02*
X203386598Y-193721900D01*
X203386598Y-193721900D02*
X203529455Y-193793328D01*
X203529455Y-193793328D02*
X203672312Y-193793328D01*
X204743741Y-193721900D02*
X204600884Y-193793328D01*
X204600884Y-193793328D02*
X204315170Y-193793328D01*
X204315170Y-193793328D02*
X204172312Y-193721900D01*
X204172312Y-193721900D02*
X204100884Y-193579042D01*
X204100884Y-193579042D02*
X204100884Y-193007614D01*
X204100884Y-193007614D02*
X204172312Y-192864757D01*
X204172312Y-192864757D02*
X204315170Y-192793328D01*
X204315170Y-192793328D02*
X204600884Y-192793328D01*
X204600884Y-192793328D02*
X204743741Y-192864757D01*
X204743741Y-192864757D02*
X204815170Y-193007614D01*
X204815170Y-193007614D02*
X204815170Y-193150471D01*
X204815170Y-193150471D02*
X204100884Y-193293328D01*
X205458026Y-193650471D02*
X205529455Y-193721900D01*
X205529455Y-193721900D02*
X205458026Y-193793328D01*
X205458026Y-193793328D02*
X205386598Y-193721900D01*
X205386598Y-193721900D02*
X205458026Y-193650471D01*
X205458026Y-193650471D02*
X205458026Y-193793328D01*
X205458026Y-192864757D02*
X205529455Y-192936185D01*
X205529455Y-192936185D02*
X205458026Y-193007614D01*
X205458026Y-193007614D02*
X205386598Y-192936185D01*
X205386598Y-192936185D02*
X205458026Y-192864757D01*
X205458026Y-192864757D02*
X205458026Y-193007614D01*
X177002200Y-194507200D02*
X285002200Y-194507200D01*
X178458026Y-196593328D02*
X178458026Y-195093328D01*
X179315169Y-196593328D02*
X178672312Y-195736185D01*
X179315169Y-195093328D02*
X178458026Y-195950471D01*
X179958026Y-196593328D02*
X179958026Y-195593328D01*
X179958026Y-195093328D02*
X179886598Y-195164757D01*
X179886598Y-195164757D02*
X179958026Y-195236185D01*
X179958026Y-195236185D02*
X180029455Y-195164757D01*
X180029455Y-195164757D02*
X179958026Y-195093328D01*
X179958026Y-195093328D02*
X179958026Y-195236185D01*
X181529455Y-196450471D02*
X181458027Y-196521900D01*
X181458027Y-196521900D02*
X181243741Y-196593328D01*
X181243741Y-196593328D02*
X181100884Y-196593328D01*
X181100884Y-196593328D02*
X180886598Y-196521900D01*
X180886598Y-196521900D02*
X180743741Y-196379042D01*
X180743741Y-196379042D02*
X180672312Y-196236185D01*
X180672312Y-196236185D02*
X180600884Y-195950471D01*
X180600884Y-195950471D02*
X180600884Y-195736185D01*
X180600884Y-195736185D02*
X180672312Y-195450471D01*
X180672312Y-195450471D02*
X180743741Y-195307614D01*
X180743741Y-195307614D02*
X180886598Y-195164757D01*
X180886598Y-195164757D02*
X181100884Y-195093328D01*
X181100884Y-195093328D02*
X181243741Y-195093328D01*
X181243741Y-195093328D02*
X181458027Y-195164757D01*
X181458027Y-195164757D02*
X181529455Y-195236185D01*
X182815170Y-196593328D02*
X182815170Y-195807614D01*
X182815170Y-195807614D02*
X182743741Y-195664757D01*
X182743741Y-195664757D02*
X182600884Y-195593328D01*
X182600884Y-195593328D02*
X182315170Y-195593328D01*
X182315170Y-195593328D02*
X182172312Y-195664757D01*
X182815170Y-196521900D02*
X182672312Y-196593328D01*
X182672312Y-196593328D02*
X182315170Y-196593328D01*
X182315170Y-196593328D02*
X182172312Y-196521900D01*
X182172312Y-196521900D02*
X182100884Y-196379042D01*
X182100884Y-196379042D02*
X182100884Y-196236185D01*
X182100884Y-196236185D02*
X182172312Y-196093328D01*
X182172312Y-196093328D02*
X182315170Y-196021900D01*
X182315170Y-196021900D02*
X182672312Y-196021900D01*
X182672312Y-196021900D02*
X182815170Y-195950471D01*
X184172313Y-196593328D02*
X184172313Y-195093328D01*
X184172313Y-196521900D02*
X184029455Y-196593328D01*
X184029455Y-196593328D02*
X183743741Y-196593328D01*
X183743741Y-196593328D02*
X183600884Y-196521900D01*
X183600884Y-196521900D02*
X183529455Y-196450471D01*
X183529455Y-196450471D02*
X183458027Y-196307614D01*
X183458027Y-196307614D02*
X183458027Y-195879042D01*
X183458027Y-195879042D02*
X183529455Y-195736185D01*
X183529455Y-195736185D02*
X183600884Y-195664757D01*
X183600884Y-195664757D02*
X183743741Y-195593328D01*
X183743741Y-195593328D02*
X184029455Y-195593328D01*
X184029455Y-195593328D02*
X184172313Y-195664757D01*
X186029455Y-195807614D02*
X186529455Y-195807614D01*
X186743741Y-196593328D02*
X186029455Y-196593328D01*
X186029455Y-196593328D02*
X186029455Y-195093328D01*
X186029455Y-195093328D02*
X186743741Y-195093328D01*
X187386598Y-196450471D02*
X187458027Y-196521900D01*
X187458027Y-196521900D02*
X187386598Y-196593328D01*
X187386598Y-196593328D02*
X187315170Y-196521900D01*
X187315170Y-196521900D02*
X187386598Y-196450471D01*
X187386598Y-196450471D02*
X187386598Y-196593328D01*
X188100884Y-196593328D02*
X188100884Y-195093328D01*
X188100884Y-195093328D02*
X188458027Y-195093328D01*
X188458027Y-195093328D02*
X188672313Y-195164757D01*
X188672313Y-195164757D02*
X188815170Y-195307614D01*
X188815170Y-195307614D02*
X188886599Y-195450471D01*
X188886599Y-195450471D02*
X188958027Y-195736185D01*
X188958027Y-195736185D02*
X188958027Y-195950471D01*
X188958027Y-195950471D02*
X188886599Y-196236185D01*
X188886599Y-196236185D02*
X188815170Y-196379042D01*
X188815170Y-196379042D02*
X188672313Y-196521900D01*
X188672313Y-196521900D02*
X188458027Y-196593328D01*
X188458027Y-196593328D02*
X188100884Y-196593328D01*
X189600884Y-196450471D02*
X189672313Y-196521900D01*
X189672313Y-196521900D02*
X189600884Y-196593328D01*
X189600884Y-196593328D02*
X189529456Y-196521900D01*
X189529456Y-196521900D02*
X189600884Y-196450471D01*
X189600884Y-196450471D02*
X189600884Y-196593328D01*
X190243742Y-196164757D02*
X190958028Y-196164757D01*
X190100885Y-196593328D02*
X190600885Y-195093328D01*
X190600885Y-195093328D02*
X191100885Y-196593328D01*
X191600884Y-196450471D02*
X191672313Y-196521900D01*
X191672313Y-196521900D02*
X191600884Y-196593328D01*
X191600884Y-196593328D02*
X191529456Y-196521900D01*
X191529456Y-196521900D02*
X191600884Y-196450471D01*
X191600884Y-196450471D02*
X191600884Y-196593328D01*
X194243742Y-196593328D02*
X193386599Y-196593328D01*
X193815170Y-196593328D02*
X193815170Y-195093328D01*
X193815170Y-195093328D02*
X193672313Y-195307614D01*
X193672313Y-195307614D02*
X193529456Y-195450471D01*
X193529456Y-195450471D02*
X193386599Y-195521900D01*
X195172313Y-195093328D02*
X195315170Y-195093328D01*
X195315170Y-195093328D02*
X195458027Y-195164757D01*
X195458027Y-195164757D02*
X195529456Y-195236185D01*
X195529456Y-195236185D02*
X195600884Y-195379042D01*
X195600884Y-195379042D02*
X195672313Y-195664757D01*
X195672313Y-195664757D02*
X195672313Y-196021900D01*
X195672313Y-196021900D02*
X195600884Y-196307614D01*
X195600884Y-196307614D02*
X195529456Y-196450471D01*
X195529456Y-196450471D02*
X195458027Y-196521900D01*
X195458027Y-196521900D02*
X195315170Y-196593328D01*
X195315170Y-196593328D02*
X195172313Y-196593328D01*
X195172313Y-196593328D02*
X195029456Y-196521900D01*
X195029456Y-196521900D02*
X194958027Y-196450471D01*
X194958027Y-196450471D02*
X194886598Y-196307614D01*
X194886598Y-196307614D02*
X194815170Y-196021900D01*
X194815170Y-196021900D02*
X194815170Y-195664757D01*
X194815170Y-195664757D02*
X194886598Y-195379042D01*
X194886598Y-195379042D02*
X194958027Y-195236185D01*
X194958027Y-195236185D02*
X195029456Y-195164757D01*
X195029456Y-195164757D02*
X195172313Y-195093328D01*
X196315169Y-196450471D02*
X196386598Y-196521900D01*
X196386598Y-196521900D02*
X196315169Y-196593328D01*
X196315169Y-196593328D02*
X196243741Y-196521900D01*
X196243741Y-196521900D02*
X196315169Y-196450471D01*
X196315169Y-196450471D02*
X196315169Y-196593328D01*
X197315170Y-195093328D02*
X197458027Y-195093328D01*
X197458027Y-195093328D02*
X197600884Y-195164757D01*
X197600884Y-195164757D02*
X197672313Y-195236185D01*
X197672313Y-195236185D02*
X197743741Y-195379042D01*
X197743741Y-195379042D02*
X197815170Y-195664757D01*
X197815170Y-195664757D02*
X197815170Y-196021900D01*
X197815170Y-196021900D02*
X197743741Y-196307614D01*
X197743741Y-196307614D02*
X197672313Y-196450471D01*
X197672313Y-196450471D02*
X197600884Y-196521900D01*
X197600884Y-196521900D02*
X197458027Y-196593328D01*
X197458027Y-196593328D02*
X197315170Y-196593328D01*
X197315170Y-196593328D02*
X197172313Y-196521900D01*
X197172313Y-196521900D02*
X197100884Y-196450471D01*
X197100884Y-196450471D02*
X197029455Y-196307614D01*
X197029455Y-196307614D02*
X196958027Y-196021900D01*
X196958027Y-196021900D02*
X196958027Y-195664757D01*
X196958027Y-195664757D02*
X197029455Y-195379042D01*
X197029455Y-195379042D02*
X197100884Y-195236185D01*
X197100884Y-195236185D02*
X197172313Y-195164757D01*
X197172313Y-195164757D02*
X197315170Y-195093328D01*
X198458026Y-196450471D02*
X198529455Y-196521900D01*
X198529455Y-196521900D02*
X198458026Y-196593328D01*
X198458026Y-196593328D02*
X198386598Y-196521900D01*
X198386598Y-196521900D02*
X198458026Y-196450471D01*
X198458026Y-196450471D02*
X198458026Y-196593328D01*
X199958027Y-196593328D02*
X199100884Y-196593328D01*
X199529455Y-196593328D02*
X199529455Y-195093328D01*
X199529455Y-195093328D02*
X199386598Y-195307614D01*
X199386598Y-195307614D02*
X199243741Y-195450471D01*
X199243741Y-195450471D02*
X199100884Y-195521900D01*
X177002200Y-191507200D02*
X285002200Y-191507200D01*
D11*
X264413853Y-193785528D02*
X263913853Y-193071242D01*
X263556710Y-193785528D02*
X263556710Y-192285528D01*
X263556710Y-192285528D02*
X264128139Y-192285528D01*
X264128139Y-192285528D02*
X264270996Y-192356957D01*
X264270996Y-192356957D02*
X264342425Y-192428385D01*
X264342425Y-192428385D02*
X264413853Y-192571242D01*
X264413853Y-192571242D02*
X264413853Y-192785528D01*
X264413853Y-192785528D02*
X264342425Y-192928385D01*
X264342425Y-192928385D02*
X264270996Y-192999814D01*
X264270996Y-192999814D02*
X264128139Y-193071242D01*
X264128139Y-193071242D02*
X263556710Y-193071242D01*
X265628139Y-193714100D02*
X265485282Y-193785528D01*
X265485282Y-193785528D02*
X265199568Y-193785528D01*
X265199568Y-193785528D02*
X265056710Y-193714100D01*
X265056710Y-193714100D02*
X264985282Y-193571242D01*
X264985282Y-193571242D02*
X264985282Y-192999814D01*
X264985282Y-192999814D02*
X265056710Y-192856957D01*
X265056710Y-192856957D02*
X265199568Y-192785528D01*
X265199568Y-192785528D02*
X265485282Y-192785528D01*
X265485282Y-192785528D02*
X265628139Y-192856957D01*
X265628139Y-192856957D02*
X265699568Y-192999814D01*
X265699568Y-192999814D02*
X265699568Y-193142671D01*
X265699568Y-193142671D02*
X264985282Y-193285528D01*
X266199567Y-192785528D02*
X266556710Y-193785528D01*
X266556710Y-193785528D02*
X266913853Y-192785528D01*
X267485281Y-193642671D02*
X267556710Y-193714100D01*
X267556710Y-193714100D02*
X267485281Y-193785528D01*
X267485281Y-193785528D02*
X267413853Y-193714100D01*
X267413853Y-193714100D02*
X267485281Y-193642671D01*
X267485281Y-193642671D02*
X267485281Y-193785528D01*
X267485281Y-192856957D02*
X267556710Y-192928385D01*
X267556710Y-192928385D02*
X267485281Y-192999814D01*
X267485281Y-192999814D02*
X267413853Y-192928385D01*
X267413853Y-192928385D02*
X267485281Y-192856957D01*
X267485281Y-192856957D02*
X267485281Y-192999814D01*
D10*
X178386598Y-193721900D02*
X178600884Y-193793328D01*
X178600884Y-193793328D02*
X178958026Y-193793328D01*
X178958026Y-193793328D02*
X179100884Y-193721900D01*
X179100884Y-193721900D02*
X179172312Y-193650471D01*
X179172312Y-193650471D02*
X179243741Y-193507614D01*
X179243741Y-193507614D02*
X179243741Y-193364757D01*
X179243741Y-193364757D02*
X179172312Y-193221900D01*
X179172312Y-193221900D02*
X179100884Y-193150471D01*
X179100884Y-193150471D02*
X178958026Y-193079042D01*
X178958026Y-193079042D02*
X178672312Y-193007614D01*
X178672312Y-193007614D02*
X178529455Y-192936185D01*
X178529455Y-192936185D02*
X178458026Y-192864757D01*
X178458026Y-192864757D02*
X178386598Y-192721900D01*
X178386598Y-192721900D02*
X178386598Y-192579042D01*
X178386598Y-192579042D02*
X178458026Y-192436185D01*
X178458026Y-192436185D02*
X178529455Y-192364757D01*
X178529455Y-192364757D02*
X178672312Y-192293328D01*
X178672312Y-192293328D02*
X179029455Y-192293328D01*
X179029455Y-192293328D02*
X179243741Y-192364757D01*
X179886597Y-193793328D02*
X179886597Y-192793328D01*
X179886597Y-192293328D02*
X179815169Y-192364757D01*
X179815169Y-192364757D02*
X179886597Y-192436185D01*
X179886597Y-192436185D02*
X179958026Y-192364757D01*
X179958026Y-192364757D02*
X179886597Y-192293328D01*
X179886597Y-192293328D02*
X179886597Y-192436185D01*
X180458026Y-192793328D02*
X181243741Y-192793328D01*
X181243741Y-192793328D02*
X180458026Y-193793328D01*
X180458026Y-193793328D02*
X181243741Y-193793328D01*
X182386598Y-193721900D02*
X182243741Y-193793328D01*
X182243741Y-193793328D02*
X181958027Y-193793328D01*
X181958027Y-193793328D02*
X181815169Y-193721900D01*
X181815169Y-193721900D02*
X181743741Y-193579042D01*
X181743741Y-193579042D02*
X181743741Y-193007614D01*
X181743741Y-193007614D02*
X181815169Y-192864757D01*
X181815169Y-192864757D02*
X181958027Y-192793328D01*
X181958027Y-192793328D02*
X182243741Y-192793328D01*
X182243741Y-192793328D02*
X182386598Y-192864757D01*
X182386598Y-192864757D02*
X182458027Y-193007614D01*
X182458027Y-193007614D02*
X182458027Y-193150471D01*
X182458027Y-193150471D02*
X181743741Y-193293328D01*
X183100883Y-193650471D02*
X183172312Y-193721900D01*
X183172312Y-193721900D02*
X183100883Y-193793328D01*
X183100883Y-193793328D02*
X183029455Y-193721900D01*
X183029455Y-193721900D02*
X183100883Y-193650471D01*
X183100883Y-193650471D02*
X183100883Y-193793328D01*
X183100883Y-192864757D02*
X183172312Y-192936185D01*
X183172312Y-192936185D02*
X183100883Y-193007614D01*
X183100883Y-193007614D02*
X183029455Y-192936185D01*
X183029455Y-192936185D02*
X183100883Y-192864757D01*
X183100883Y-192864757D02*
X183100883Y-193007614D01*
X184886598Y-193364757D02*
X185600884Y-193364757D01*
X184743741Y-193793328D02*
X185243741Y-192293328D01*
X185243741Y-192293328D02*
X185743741Y-193793328D01*
X186886598Y-192793328D02*
X186886598Y-193793328D01*
X186529455Y-192221900D02*
X186172312Y-193293328D01*
X186172312Y-193293328D02*
X187100883Y-193293328D01*
X263458026Y-196593328D02*
X263458026Y-195093328D01*
X264815170Y-196593328D02*
X264815170Y-195093328D01*
X264815170Y-196521900D02*
X264672312Y-196593328D01*
X264672312Y-196593328D02*
X264386598Y-196593328D01*
X264386598Y-196593328D02*
X264243741Y-196521900D01*
X264243741Y-196521900D02*
X264172312Y-196450471D01*
X264172312Y-196450471D02*
X264100884Y-196307614D01*
X264100884Y-196307614D02*
X264100884Y-195879042D01*
X264100884Y-195879042D02*
X264172312Y-195736185D01*
X264172312Y-195736185D02*
X264243741Y-195664757D01*
X264243741Y-195664757D02*
X264386598Y-195593328D01*
X264386598Y-195593328D02*
X264672312Y-195593328D01*
X264672312Y-195593328D02*
X264815170Y-195664757D01*
X265529455Y-196450471D02*
X265600884Y-196521900D01*
X265600884Y-196521900D02*
X265529455Y-196593328D01*
X265529455Y-196593328D02*
X265458027Y-196521900D01*
X265458027Y-196521900D02*
X265529455Y-196450471D01*
X265529455Y-196450471D02*
X265529455Y-196593328D01*
X265529455Y-195664757D02*
X265600884Y-195736185D01*
X265600884Y-195736185D02*
X265529455Y-195807614D01*
X265529455Y-195807614D02*
X265458027Y-195736185D01*
X265458027Y-195736185D02*
X265529455Y-195664757D01*
X265529455Y-195664757D02*
X265529455Y-195807614D01*
X267315170Y-195236185D02*
X267386598Y-195164757D01*
X267386598Y-195164757D02*
X267529456Y-195093328D01*
X267529456Y-195093328D02*
X267886598Y-195093328D01*
X267886598Y-195093328D02*
X268029456Y-195164757D01*
X268029456Y-195164757D02*
X268100884Y-195236185D01*
X268100884Y-195236185D02*
X268172313Y-195379042D01*
X268172313Y-195379042D02*
X268172313Y-195521900D01*
X268172313Y-195521900D02*
X268100884Y-195736185D01*
X268100884Y-195736185D02*
X267243741Y-196593328D01*
X267243741Y-196593328D02*
X268172313Y-196593328D01*
X269886598Y-195021900D02*
X268600884Y-196950471D01*
X270458027Y-196593328D02*
X270743741Y-196593328D01*
X270743741Y-196593328D02*
X270886598Y-196521900D01*
X270886598Y-196521900D02*
X270958027Y-196450471D01*
X270958027Y-196450471D02*
X271100884Y-196236185D01*
X271100884Y-196236185D02*
X271172313Y-195950471D01*
X271172313Y-195950471D02*
X271172313Y-195379042D01*
X271172313Y-195379042D02*
X271100884Y-195236185D01*
X271100884Y-195236185D02*
X271029456Y-195164757D01*
X271029456Y-195164757D02*
X270886598Y-195093328D01*
X270886598Y-195093328D02*
X270600884Y-195093328D01*
X270600884Y-195093328D02*
X270458027Y-195164757D01*
X270458027Y-195164757D02*
X270386598Y-195236185D01*
X270386598Y-195236185D02*
X270315170Y-195379042D01*
X270315170Y-195379042D02*
X270315170Y-195736185D01*
X270315170Y-195736185D02*
X270386598Y-195879042D01*
X270386598Y-195879042D02*
X270458027Y-195950471D01*
X270458027Y-195950471D02*
X270600884Y-196021900D01*
X270600884Y-196021900D02*
X270886598Y-196021900D01*
X270886598Y-196021900D02*
X271029456Y-195950471D01*
X271029456Y-195950471D02*
X271100884Y-195879042D01*
X271100884Y-195879042D02*
X271172313Y-195736185D01*
X177002200Y-187507200D02*
X285002200Y-187507200D01*
D12*
X178693928Y-188211638D02*
X179836785Y-188211638D01*
X179015357Y-190211638D02*
X179265357Y-188211638D01*
X180253452Y-190211638D02*
X180420119Y-188878304D01*
X180503452Y-188211638D02*
X180396309Y-188306876D01*
X180396309Y-188306876D02*
X180479643Y-188402114D01*
X180479643Y-188402114D02*
X180586786Y-188306876D01*
X180586786Y-188306876D02*
X180503452Y-188211638D01*
X180503452Y-188211638D02*
X180479643Y-188402114D01*
X181086786Y-188878304D02*
X181848690Y-188878304D01*
X181455833Y-188211638D02*
X181241548Y-189925923D01*
X181241548Y-189925923D02*
X181312976Y-190116400D01*
X181312976Y-190116400D02*
X181491548Y-190211638D01*
X181491548Y-190211638D02*
X181682024Y-190211638D01*
X182634405Y-190211638D02*
X182455833Y-190116400D01*
X182455833Y-190116400D02*
X182384405Y-189925923D01*
X182384405Y-189925923D02*
X182598690Y-188211638D01*
X184170119Y-190116400D02*
X183967738Y-190211638D01*
X183967738Y-190211638D02*
X183586785Y-190211638D01*
X183586785Y-190211638D02*
X183408214Y-190116400D01*
X183408214Y-190116400D02*
X183336785Y-189925923D01*
X183336785Y-189925923D02*
X183432024Y-189164019D01*
X183432024Y-189164019D02*
X183551071Y-188973542D01*
X183551071Y-188973542D02*
X183753452Y-188878304D01*
X183753452Y-188878304D02*
X184134404Y-188878304D01*
X184134404Y-188878304D02*
X184312976Y-188973542D01*
X184312976Y-188973542D02*
X184384404Y-189164019D01*
X184384404Y-189164019D02*
X184360595Y-189354495D01*
X184360595Y-189354495D02*
X183384404Y-189544971D01*
X185134405Y-190021161D02*
X185217738Y-190116400D01*
X185217738Y-190116400D02*
X185110595Y-190211638D01*
X185110595Y-190211638D02*
X185027262Y-190116400D01*
X185027262Y-190116400D02*
X185134405Y-190021161D01*
X185134405Y-190021161D02*
X185110595Y-190211638D01*
X185265357Y-188973542D02*
X185348690Y-189068780D01*
X185348690Y-189068780D02*
X185241548Y-189164019D01*
X185241548Y-189164019D02*
X185158214Y-189068780D01*
X185158214Y-189068780D02*
X185265357Y-188973542D01*
X185265357Y-188973542D02*
X185241548Y-189164019D01*
D10*
X178958026Y-185607614D02*
X178458026Y-185607614D01*
X178458026Y-186393328D02*
X178458026Y-184893328D01*
X178458026Y-184893328D02*
X179172312Y-184893328D01*
X179743740Y-186393328D02*
X179743740Y-185393328D01*
X179743740Y-184893328D02*
X179672312Y-184964757D01*
X179672312Y-184964757D02*
X179743740Y-185036185D01*
X179743740Y-185036185D02*
X179815169Y-184964757D01*
X179815169Y-184964757D02*
X179743740Y-184893328D01*
X179743740Y-184893328D02*
X179743740Y-185036185D01*
X180672312Y-186393328D02*
X180529455Y-186321900D01*
X180529455Y-186321900D02*
X180458026Y-186179042D01*
X180458026Y-186179042D02*
X180458026Y-184893328D01*
X181815169Y-186321900D02*
X181672312Y-186393328D01*
X181672312Y-186393328D02*
X181386598Y-186393328D01*
X181386598Y-186393328D02*
X181243740Y-186321900D01*
X181243740Y-186321900D02*
X181172312Y-186179042D01*
X181172312Y-186179042D02*
X181172312Y-185607614D01*
X181172312Y-185607614D02*
X181243740Y-185464757D01*
X181243740Y-185464757D02*
X181386598Y-185393328D01*
X181386598Y-185393328D02*
X181672312Y-185393328D01*
X181672312Y-185393328D02*
X181815169Y-185464757D01*
X181815169Y-185464757D02*
X181886598Y-185607614D01*
X181886598Y-185607614D02*
X181886598Y-185750471D01*
X181886598Y-185750471D02*
X181172312Y-185893328D01*
X182529454Y-186250471D02*
X182600883Y-186321900D01*
X182600883Y-186321900D02*
X182529454Y-186393328D01*
X182529454Y-186393328D02*
X182458026Y-186321900D01*
X182458026Y-186321900D02*
X182529454Y-186250471D01*
X182529454Y-186250471D02*
X182529454Y-186393328D01*
X182529454Y-185464757D02*
X182600883Y-185536185D01*
X182600883Y-185536185D02*
X182529454Y-185607614D01*
X182529454Y-185607614D02*
X182458026Y-185536185D01*
X182458026Y-185536185D02*
X182529454Y-185464757D01*
X182529454Y-185464757D02*
X182529454Y-185607614D01*
X184386597Y-186393328D02*
X184386597Y-184893328D01*
X184386597Y-184893328D02*
X184886597Y-185964757D01*
X184886597Y-185964757D02*
X185386597Y-184893328D01*
X185386597Y-184893328D02*
X185386597Y-186393328D01*
X186029455Y-185964757D02*
X186743741Y-185964757D01*
X185886598Y-186393328D02*
X186386598Y-184893328D01*
X186386598Y-184893328D02*
X186886598Y-186393328D01*
X188172312Y-184964757D02*
X188029455Y-184893328D01*
X188029455Y-184893328D02*
X187815169Y-184893328D01*
X187815169Y-184893328D02*
X187600883Y-184964757D01*
X187600883Y-184964757D02*
X187458026Y-185107614D01*
X187458026Y-185107614D02*
X187386597Y-185250471D01*
X187386597Y-185250471D02*
X187315169Y-185536185D01*
X187315169Y-185536185D02*
X187315169Y-185750471D01*
X187315169Y-185750471D02*
X187386597Y-186036185D01*
X187386597Y-186036185D02*
X187458026Y-186179042D01*
X187458026Y-186179042D02*
X187600883Y-186321900D01*
X187600883Y-186321900D02*
X187815169Y-186393328D01*
X187815169Y-186393328D02*
X187958026Y-186393328D01*
X187958026Y-186393328D02*
X188172312Y-186321900D01*
X188172312Y-186321900D02*
X188243740Y-186250471D01*
X188243740Y-186250471D02*
X188243740Y-185750471D01*
X188243740Y-185750471D02*
X187958026Y-185750471D01*
X190029454Y-186393328D02*
X190029454Y-184893328D01*
X190029454Y-184893328D02*
X190600883Y-184893328D01*
X190600883Y-184893328D02*
X190743740Y-184964757D01*
X190743740Y-184964757D02*
X190815169Y-185036185D01*
X190815169Y-185036185D02*
X190886597Y-185179042D01*
X190886597Y-185179042D02*
X190886597Y-185393328D01*
X190886597Y-185393328D02*
X190815169Y-185536185D01*
X190815169Y-185536185D02*
X190743740Y-185607614D01*
X190743740Y-185607614D02*
X190600883Y-185679042D01*
X190600883Y-185679042D02*
X190029454Y-185679042D01*
X192386597Y-186250471D02*
X192315169Y-186321900D01*
X192315169Y-186321900D02*
X192100883Y-186393328D01*
X192100883Y-186393328D02*
X191958026Y-186393328D01*
X191958026Y-186393328D02*
X191743740Y-186321900D01*
X191743740Y-186321900D02*
X191600883Y-186179042D01*
X191600883Y-186179042D02*
X191529454Y-186036185D01*
X191529454Y-186036185D02*
X191458026Y-185750471D01*
X191458026Y-185750471D02*
X191458026Y-185536185D01*
X191458026Y-185536185D02*
X191529454Y-185250471D01*
X191529454Y-185250471D02*
X191600883Y-185107614D01*
X191600883Y-185107614D02*
X191743740Y-184964757D01*
X191743740Y-184964757D02*
X191958026Y-184893328D01*
X191958026Y-184893328D02*
X192100883Y-184893328D01*
X192100883Y-184893328D02*
X192315169Y-184964757D01*
X192315169Y-184964757D02*
X192386597Y-185036185D01*
X193529454Y-185607614D02*
X193743740Y-185679042D01*
X193743740Y-185679042D02*
X193815169Y-185750471D01*
X193815169Y-185750471D02*
X193886597Y-185893328D01*
X193886597Y-185893328D02*
X193886597Y-186107614D01*
X193886597Y-186107614D02*
X193815169Y-186250471D01*
X193815169Y-186250471D02*
X193743740Y-186321900D01*
X193743740Y-186321900D02*
X193600883Y-186393328D01*
X193600883Y-186393328D02*
X193029454Y-186393328D01*
X193029454Y-186393328D02*
X193029454Y-184893328D01*
X193029454Y-184893328D02*
X193529454Y-184893328D01*
X193529454Y-184893328D02*
X193672312Y-184964757D01*
X193672312Y-184964757D02*
X193743740Y-185036185D01*
X193743740Y-185036185D02*
X193815169Y-185179042D01*
X193815169Y-185179042D02*
X193815169Y-185321900D01*
X193815169Y-185321900D02*
X193743740Y-185464757D01*
X193743740Y-185464757D02*
X193672312Y-185536185D01*
X193672312Y-185536185D02*
X193529454Y-185607614D01*
X193529454Y-185607614D02*
X193029454Y-185607614D01*
X196172311Y-185607614D02*
X195672311Y-185607614D01*
X195672311Y-186393328D02*
X195672311Y-184893328D01*
X195672311Y-184893328D02*
X196386597Y-184893328D01*
X196958025Y-186393328D02*
X196958025Y-184893328D01*
X197672311Y-186393328D02*
X197672311Y-184893328D01*
X197672311Y-184893328D02*
X198529454Y-186393328D01*
X198529454Y-186393328D02*
X198529454Y-184893328D01*
X199172312Y-185964757D02*
X199886598Y-185964757D01*
X199029455Y-186393328D02*
X199529455Y-184893328D01*
X199529455Y-184893328D02*
X200029455Y-186393328D01*
X201243740Y-186393328D02*
X200529454Y-186393328D01*
X200529454Y-186393328D02*
X200529454Y-184893328D01*
X201743740Y-186250471D02*
X201815169Y-186321900D01*
X201815169Y-186321900D02*
X201743740Y-186393328D01*
X201743740Y-186393328D02*
X201672312Y-186321900D01*
X201672312Y-186321900D02*
X201743740Y-186250471D01*
X201743740Y-186250471D02*
X201743740Y-186393328D01*
X202458026Y-186393328D02*
X202458026Y-184893328D01*
X202600884Y-185821900D02*
X203029455Y-186393328D01*
X203029455Y-185393328D02*
X202458026Y-185964757D01*
X203672312Y-186393328D02*
X203672312Y-185393328D01*
X203672312Y-184893328D02*
X203600884Y-184964757D01*
X203600884Y-184964757D02*
X203672312Y-185036185D01*
X203672312Y-185036185D02*
X203743741Y-184964757D01*
X203743741Y-184964757D02*
X203672312Y-184893328D01*
X203672312Y-184893328D02*
X203672312Y-185036185D01*
X205029456Y-186321900D02*
X204886598Y-186393328D01*
X204886598Y-186393328D02*
X204600884Y-186393328D01*
X204600884Y-186393328D02*
X204458027Y-186321900D01*
X204458027Y-186321900D02*
X204386598Y-186250471D01*
X204386598Y-186250471D02*
X204315170Y-186107614D01*
X204315170Y-186107614D02*
X204315170Y-185679042D01*
X204315170Y-185679042D02*
X204386598Y-185536185D01*
X204386598Y-185536185D02*
X204458027Y-185464757D01*
X204458027Y-185464757D02*
X204600884Y-185393328D01*
X204600884Y-185393328D02*
X204886598Y-185393328D01*
X204886598Y-185393328D02*
X205029456Y-185464757D01*
X206315170Y-186393328D02*
X206315170Y-185607614D01*
X206315170Y-185607614D02*
X206243741Y-185464757D01*
X206243741Y-185464757D02*
X206100884Y-185393328D01*
X206100884Y-185393328D02*
X205815170Y-185393328D01*
X205815170Y-185393328D02*
X205672312Y-185464757D01*
X206315170Y-186321900D02*
X206172312Y-186393328D01*
X206172312Y-186393328D02*
X205815170Y-186393328D01*
X205815170Y-186393328D02*
X205672312Y-186321900D01*
X205672312Y-186321900D02*
X205600884Y-186179042D01*
X205600884Y-186179042D02*
X205600884Y-186036185D01*
X205600884Y-186036185D02*
X205672312Y-185893328D01*
X205672312Y-185893328D02*
X205815170Y-185821900D01*
X205815170Y-185821900D02*
X206172312Y-185821900D01*
X206172312Y-185821900D02*
X206315170Y-185750471D01*
X207672313Y-186393328D02*
X207672313Y-184893328D01*
X207672313Y-186321900D02*
X207529455Y-186393328D01*
X207529455Y-186393328D02*
X207243741Y-186393328D01*
X207243741Y-186393328D02*
X207100884Y-186321900D01*
X207100884Y-186321900D02*
X207029455Y-186250471D01*
X207029455Y-186250471D02*
X206958027Y-186107614D01*
X206958027Y-186107614D02*
X206958027Y-185679042D01*
X206958027Y-185679042D02*
X207029455Y-185536185D01*
X207029455Y-185536185D02*
X207100884Y-185464757D01*
X207100884Y-185464757D02*
X207243741Y-185393328D01*
X207243741Y-185393328D02*
X207529455Y-185393328D01*
X207529455Y-185393328D02*
X207672313Y-185464757D01*
X208029456Y-186536185D02*
X209172313Y-186536185D01*
X209529455Y-185393328D02*
X209529455Y-186893328D01*
X209529455Y-185464757D02*
X209672313Y-185393328D01*
X209672313Y-185393328D02*
X209958027Y-185393328D01*
X209958027Y-185393328D02*
X210100884Y-185464757D01*
X210100884Y-185464757D02*
X210172313Y-185536185D01*
X210172313Y-185536185D02*
X210243741Y-185679042D01*
X210243741Y-185679042D02*
X210243741Y-186107614D01*
X210243741Y-186107614D02*
X210172313Y-186250471D01*
X210172313Y-186250471D02*
X210100884Y-186321900D01*
X210100884Y-186321900D02*
X209958027Y-186393328D01*
X209958027Y-186393328D02*
X209672313Y-186393328D01*
X209672313Y-186393328D02*
X209529455Y-186321900D01*
X211529456Y-186321900D02*
X211386598Y-186393328D01*
X211386598Y-186393328D02*
X211100884Y-186393328D01*
X211100884Y-186393328D02*
X210958027Y-186321900D01*
X210958027Y-186321900D02*
X210886598Y-186250471D01*
X210886598Y-186250471D02*
X210815170Y-186107614D01*
X210815170Y-186107614D02*
X210815170Y-185679042D01*
X210815170Y-185679042D02*
X210886598Y-185536185D01*
X210886598Y-185536185D02*
X210958027Y-185464757D01*
X210958027Y-185464757D02*
X211100884Y-185393328D01*
X211100884Y-185393328D02*
X211386598Y-185393328D01*
X211386598Y-185393328D02*
X211529456Y-185464757D01*
X212172312Y-186393328D02*
X212172312Y-184893328D01*
X212172312Y-185464757D02*
X212315170Y-185393328D01*
X212315170Y-185393328D02*
X212600884Y-185393328D01*
X212600884Y-185393328D02*
X212743741Y-185464757D01*
X212743741Y-185464757D02*
X212815170Y-185536185D01*
X212815170Y-185536185D02*
X212886598Y-185679042D01*
X212886598Y-185679042D02*
X212886598Y-186107614D01*
X212886598Y-186107614D02*
X212815170Y-186250471D01*
X212815170Y-186250471D02*
X212743741Y-186321900D01*
X212743741Y-186321900D02*
X212600884Y-186393328D01*
X212600884Y-186393328D02*
X212315170Y-186393328D01*
X212315170Y-186393328D02*
X212172312Y-186321900D01*
X177002200Y-181507200D02*
X285002200Y-181507200D01*
X178386598Y-183621900D02*
X178600884Y-183693328D01*
X178600884Y-183693328D02*
X178958026Y-183693328D01*
X178958026Y-183693328D02*
X179100884Y-183621900D01*
X179100884Y-183621900D02*
X179172312Y-183550471D01*
X179172312Y-183550471D02*
X179243741Y-183407614D01*
X179243741Y-183407614D02*
X179243741Y-183264757D01*
X179243741Y-183264757D02*
X179172312Y-183121900D01*
X179172312Y-183121900D02*
X179100884Y-183050471D01*
X179100884Y-183050471D02*
X178958026Y-182979042D01*
X178958026Y-182979042D02*
X178672312Y-182907614D01*
X178672312Y-182907614D02*
X178529455Y-182836185D01*
X178529455Y-182836185D02*
X178458026Y-182764757D01*
X178458026Y-182764757D02*
X178386598Y-182621900D01*
X178386598Y-182621900D02*
X178386598Y-182479042D01*
X178386598Y-182479042D02*
X178458026Y-182336185D01*
X178458026Y-182336185D02*
X178529455Y-182264757D01*
X178529455Y-182264757D02*
X178672312Y-182193328D01*
X178672312Y-182193328D02*
X179029455Y-182193328D01*
X179029455Y-182193328D02*
X179243741Y-182264757D01*
X179886597Y-183693328D02*
X179886597Y-182193328D01*
X180529455Y-183693328D02*
X180529455Y-182907614D01*
X180529455Y-182907614D02*
X180458026Y-182764757D01*
X180458026Y-182764757D02*
X180315169Y-182693328D01*
X180315169Y-182693328D02*
X180100883Y-182693328D01*
X180100883Y-182693328D02*
X179958026Y-182764757D01*
X179958026Y-182764757D02*
X179886597Y-182836185D01*
X181815169Y-183621900D02*
X181672312Y-183693328D01*
X181672312Y-183693328D02*
X181386598Y-183693328D01*
X181386598Y-183693328D02*
X181243740Y-183621900D01*
X181243740Y-183621900D02*
X181172312Y-183479042D01*
X181172312Y-183479042D02*
X181172312Y-182907614D01*
X181172312Y-182907614D02*
X181243740Y-182764757D01*
X181243740Y-182764757D02*
X181386598Y-182693328D01*
X181386598Y-182693328D02*
X181672312Y-182693328D01*
X181672312Y-182693328D02*
X181815169Y-182764757D01*
X181815169Y-182764757D02*
X181886598Y-182907614D01*
X181886598Y-182907614D02*
X181886598Y-183050471D01*
X181886598Y-183050471D02*
X181172312Y-183193328D01*
X183100883Y-183621900D02*
X182958026Y-183693328D01*
X182958026Y-183693328D02*
X182672312Y-183693328D01*
X182672312Y-183693328D02*
X182529454Y-183621900D01*
X182529454Y-183621900D02*
X182458026Y-183479042D01*
X182458026Y-183479042D02*
X182458026Y-182907614D01*
X182458026Y-182907614D02*
X182529454Y-182764757D01*
X182529454Y-182764757D02*
X182672312Y-182693328D01*
X182672312Y-182693328D02*
X182958026Y-182693328D01*
X182958026Y-182693328D02*
X183100883Y-182764757D01*
X183100883Y-182764757D02*
X183172312Y-182907614D01*
X183172312Y-182907614D02*
X183172312Y-183050471D01*
X183172312Y-183050471D02*
X182458026Y-183193328D01*
X183600883Y-182693328D02*
X184172311Y-182693328D01*
X183815168Y-182193328D02*
X183815168Y-183479042D01*
X183815168Y-183479042D02*
X183886597Y-183621900D01*
X183886597Y-183621900D02*
X184029454Y-183693328D01*
X184029454Y-183693328D02*
X184172311Y-183693328D01*
X184672311Y-183550471D02*
X184743740Y-183621900D01*
X184743740Y-183621900D02*
X184672311Y-183693328D01*
X184672311Y-183693328D02*
X184600883Y-183621900D01*
X184600883Y-183621900D02*
X184672311Y-183550471D01*
X184672311Y-183550471D02*
X184672311Y-183693328D01*
X184672311Y-182764757D02*
X184743740Y-182836185D01*
X184743740Y-182836185D02*
X184672311Y-182907614D01*
X184672311Y-182907614D02*
X184600883Y-182836185D01*
X184600883Y-182836185D02*
X184672311Y-182764757D01*
X184672311Y-182764757D02*
X184672311Y-182907614D01*
X197002200Y-191507200D02*
X197002200Y-194507200D01*
X261002200Y-191507200D02*
X261002200Y-198007200D01*
D13*
%TO.N,VCC*%
X98000000Y-52000000D03*
X77000000Y-52000000D03*
X91000000Y-48000000D03*
%TO.N,GND*%
X97000000Y-96000000D03*
X91000000Y-144000000D03*
X87000000Y-75000000D03*
X99000000Y-144000000D03*
X98622026Y-109000000D03*
X77000000Y-117000000D03*
X104000000Y-143000000D03*
X89000000Y-110000000D03*
X101000000Y-66500000D03*
X75000000Y-128000000D03*
X102000000Y-58500000D03*
X117000000Y-129000000D03*
X103000000Y-40000000D03*
X77000000Y-122000000D03*
X86000000Y-40000000D03*
X89000000Y-61500000D03*
X100000000Y-55500000D03*
X114000000Y-122000000D03*
X97000000Y-106000000D03*
X117250000Y-123250000D03*
%TO.N,+3.3V*%
X91000000Y-108000000D03*
X72000000Y-121000000D03*
X112000000Y-129000000D03*
X100000000Y-148000000D03*
X76000000Y-122000000D03*
X114946021Y-123050412D03*
X94000000Y-105000000D03*
X109000000Y-46500000D03*
X108000000Y-62000000D03*
%TO.N,Net-(U5-CAP)*%
X87000000Y-144000000D03*
X99000000Y-145000000D03*
%TO.N,+5V*%
X98000000Y-56800000D03*
X100000000Y-41000000D03*
%TO.N,/FFC CONN 0/SDA*%
X104000000Y-59500000D03*
X103000000Y-45000000D03*
X105000000Y-51500000D03*
X77000000Y-55000000D03*
%TO.N,/FFC CONN 0/RST*%
X94000000Y-46000000D03*
X98000000Y-48500000D03*
%TO.N,/FFC CONN 0/SCL*%
X106000000Y-53500000D03*
X103000000Y-43000000D03*
X77000000Y-58000000D03*
X105000000Y-60500000D03*
%TO.N,/MMC 0/SC0*%
X86000000Y-74000000D03*
X86000000Y-77000000D03*
%TO.N,/MMC 1/SD1*%
X92049500Y-79950500D03*
X87000000Y-61000000D03*
%TO.N,/MMC 1/SC1*%
X85000000Y-64000000D03*
X88000000Y-76000000D03*
%TO.N,/MMC 2/SD2*%
X99000000Y-73000000D03*
X98957042Y-80957041D03*
%TO.N,/MMC 3/SC3*%
X96000000Y-82000000D03*
X98000000Y-72000000D03*
%TO.N,/MMC 3/SD3*%
X94000000Y-78000000D03*
X97000000Y-71000000D03*
%TD*%
%TO.N,VCC*%
D14*
X91000000Y-48000000D02*
X94000000Y-48000000D01*
X77000000Y-52000000D02*
X98000000Y-52000000D01*
X94000000Y-48000000D02*
X98000000Y-52000000D01*
%TO.N,GND*%
X100000000Y-143000000D02*
X99000000Y-144000000D01*
X118000000Y-133079346D02*
X118000000Y-128000000D01*
X107000000Y-138000000D02*
X113079346Y-138000000D01*
X101000000Y-109000000D02*
X114000000Y-122000000D01*
X100000000Y-67500000D02*
X95000000Y-67500000D01*
D15*
X87000000Y-75000000D02*
X87000000Y-68000000D01*
D14*
X71349000Y-120730346D02*
X75079346Y-117000000D01*
D15*
X84000000Y-65000000D02*
X84000000Y-61000000D01*
D14*
X98622026Y-109377974D02*
X98000000Y-110000000D01*
X75000000Y-124000000D02*
X75000000Y-128000000D01*
D15*
X87799000Y-60299000D02*
X89000000Y-61500000D01*
D14*
X97000000Y-88000000D02*
X87000000Y-78000000D01*
X97000000Y-107377974D02*
X98622026Y-109000000D01*
X97000000Y-96000000D02*
X97000000Y-88000000D01*
X102000000Y-57500000D02*
X100750000Y-56250000D01*
D15*
X87000000Y-68000000D02*
X84000000Y-65000000D01*
D14*
X75079346Y-117000000D02*
X77000000Y-117000000D01*
X118000000Y-128000000D02*
X117000000Y-129000000D01*
D15*
X84701000Y-60299000D02*
X87799000Y-60299000D01*
D14*
X101000000Y-40000000D02*
X103000000Y-40000000D01*
X99000000Y-144000000D02*
X91000000Y-144000000D01*
X101000000Y-66500000D02*
X100000000Y-67500000D01*
X86000000Y-40000000D02*
X101000000Y-40000000D01*
X104000000Y-143000000D02*
X102000000Y-143000000D01*
X98000000Y-110000000D02*
X89000000Y-110000000D01*
D15*
X84000000Y-61000000D02*
X84701000Y-60299000D01*
D14*
X77000000Y-122000000D02*
X75000000Y-124000000D01*
X117250000Y-123250000D02*
X118000000Y-124000000D01*
X102000000Y-58500000D02*
X102000000Y-57500000D01*
X102000000Y-143000000D02*
X100000000Y-143000000D01*
X98622026Y-109000000D02*
X101000000Y-109000000D01*
X95000000Y-67500000D02*
X89000000Y-61500000D01*
X100750000Y-56250000D02*
X100000000Y-55500000D01*
X87000000Y-78000000D02*
X87000000Y-75000000D01*
X118000000Y-124000000D02*
X118000000Y-128000000D01*
X75000000Y-128000000D02*
X71349000Y-124349000D01*
X100750000Y-56250000D02*
X101000000Y-56000000D01*
X97000000Y-106000000D02*
X97000000Y-107377974D01*
X98622026Y-109000000D02*
X98622026Y-109377974D01*
X102000000Y-143000000D02*
X107000000Y-138000000D01*
X71349000Y-124349000D02*
X71349000Y-120730346D01*
X101000000Y-56000000D02*
X101000000Y-40000000D01*
X113079346Y-138000000D02*
X118000000Y-133079346D01*
%TO.N,+3.3V*%
X107000000Y-62000000D02*
X107000000Y-65000000D01*
X91000000Y-108000000D02*
X88000000Y-108000000D01*
X88000000Y-108000000D02*
X75000000Y-121000000D01*
X76000000Y-122000000D02*
X75000000Y-121000000D01*
X86349000Y-144198943D02*
X86349000Y-144269654D01*
X107000000Y-65000000D02*
X101000000Y-71000000D01*
X79000000Y-136849943D02*
X86349000Y-144198943D01*
X86349000Y-144269654D02*
X86730346Y-144651000D01*
X94000000Y-105000000D02*
X91000000Y-108000000D01*
X114946021Y-123050412D02*
X114946021Y-119946021D01*
X79000000Y-122000000D02*
X79000000Y-136849943D01*
X114946021Y-119946021D02*
X101000000Y-106000000D01*
X109000000Y-46500000D02*
X107702000Y-46500000D01*
X75000000Y-121000000D02*
X78000000Y-121000000D01*
X94000000Y-105000000D02*
X101000000Y-105000000D01*
X107702000Y-46500000D02*
X107000000Y-47202000D01*
X114946021Y-123050412D02*
X114946021Y-126053979D01*
X90150057Y-148000000D02*
X100000000Y-148000000D01*
X86730346Y-144651000D02*
X86801057Y-144651000D01*
X108000000Y-62000000D02*
X107000000Y-62000000D01*
X75000000Y-121000000D02*
X72000000Y-121000000D01*
X101000000Y-106000000D02*
X101000000Y-105000000D01*
X114946021Y-126053979D02*
X112000000Y-129000000D01*
X86801057Y-144651000D02*
X90150057Y-148000000D01*
X107000000Y-47202000D02*
X107000000Y-62000000D01*
X78000000Y-121000000D02*
X79000000Y-122000000D01*
X101000000Y-71000000D02*
X101000000Y-105000000D01*
%TO.N,Net-(U5-CAP)*%
X99000000Y-145000000D02*
X88000000Y-145000000D01*
X88000000Y-145000000D02*
X87000000Y-144000000D01*
%TO.N,+5V*%
X98000000Y-56000000D02*
X100000000Y-54000000D01*
X98000000Y-56800000D02*
X98000000Y-56000000D01*
X100000000Y-54000000D02*
X100000000Y-41000000D01*
%TO.N,/FFC CONN 0/SDA*%
X105000000Y-51500000D02*
X105000000Y-58500000D01*
X105000000Y-47000000D02*
X105000000Y-51500000D01*
X93500000Y-59500000D02*
X104000000Y-59500000D01*
X103000000Y-45000000D02*
X105000000Y-47000000D01*
X105000000Y-58500000D02*
X104000000Y-59500000D01*
X80000000Y-58000000D02*
X92000000Y-58000000D01*
X92000000Y-58000000D02*
X93500000Y-59500000D01*
X77000000Y-55000000D02*
X80000000Y-58000000D01*
%TO.N,/FFC CONN 0/RST*%
X96500000Y-48500000D02*
X98000000Y-48500000D01*
X94000000Y-46000000D02*
X96500000Y-48500000D01*
%TO.N,/FFC CONN 0/SCL*%
X104008636Y-60500000D02*
X105000000Y-60500000D01*
X89000000Y-59201000D02*
X90799000Y-61000000D01*
X106000000Y-46000000D02*
X106000000Y-53500000D01*
X105000000Y-60500000D02*
X106000000Y-59500000D01*
X103508636Y-61000000D02*
X104008636Y-60500000D01*
X103000000Y-43000000D02*
X106000000Y-46000000D01*
X106000000Y-59500000D02*
X106000000Y-53500000D01*
X78201000Y-59201000D02*
X89000000Y-59201000D01*
X77000000Y-58000000D02*
X78201000Y-59201000D01*
X90799000Y-61000000D02*
X103508636Y-61000000D01*
%TO.N,/MMC 0/SC0*%
X86000000Y-77000000D02*
X86000000Y-74000000D01*
%TO.N,/MMC 1/SD1*%
X87000000Y-61000000D02*
X87500000Y-61500000D01*
X87500000Y-61500000D02*
X87500000Y-62500000D01*
X87500000Y-62500000D02*
X92000000Y-67000000D01*
X92000000Y-67000000D02*
X92000000Y-80000000D01*
%TO.N,/MMC 1/SC1*%
X88000000Y-67000000D02*
X88000000Y-76000000D01*
X85000000Y-64000000D02*
X88000000Y-67000000D01*
%TO.N,/MMC 2/SD2*%
X99000000Y-73000000D02*
X99000000Y-80914083D01*
X99000000Y-80914083D02*
X98957042Y-80957041D01*
%TO.N,/MMC 3/SC3*%
X96000000Y-74000000D02*
X96000000Y-82000000D01*
X98000000Y-72000000D02*
X96000000Y-74000000D01*
%TO.N,/MMC 3/SD3*%
X94000000Y-74000000D02*
X97000000Y-71000000D01*
X94000000Y-78000000D02*
X94000000Y-74000000D01*
%TD*%
%TA.AperFunction,Conductor*%
%TO.N,GND*%
G36*
X116808363Y-30520185D02*
G01*
X116829005Y-30536819D01*
X119463181Y-33170995D01*
X119496666Y-33232318D01*
X119499500Y-33258676D01*
X119499500Y-64741324D01*
X119479815Y-64808363D01*
X119463181Y-64829005D01*
X103599502Y-80692683D01*
X103599500Y-80692686D01*
X103533608Y-80806812D01*
X103499500Y-80934108D01*
X103499500Y-101065891D01*
X103533608Y-101193187D01*
X103566554Y-101250250D01*
X103599500Y-101307314D01*
X103599502Y-101307316D01*
X119463181Y-117170995D01*
X119496666Y-117232318D01*
X119499500Y-117258676D01*
X119499500Y-133741324D01*
X119479815Y-133808363D01*
X119463181Y-133829005D01*
X103829005Y-149463181D01*
X103767682Y-149496666D01*
X103741324Y-149499500D01*
X86258676Y-149499500D01*
X86191637Y-149479815D01*
X86170995Y-149463181D01*
X70536819Y-133829005D01*
X70503334Y-133767682D01*
X70500500Y-133741324D01*
X70500500Y-120921153D01*
X71199500Y-120921153D01*
X71199500Y-121078846D01*
X71230261Y-121233489D01*
X71230264Y-121233501D01*
X71290602Y-121379172D01*
X71290609Y-121379185D01*
X71378210Y-121510288D01*
X71378213Y-121510292D01*
X71489707Y-121621786D01*
X71489711Y-121621789D01*
X71620814Y-121709390D01*
X71620827Y-121709397D01*
X71745931Y-121761216D01*
X71766503Y-121769737D01*
X71912069Y-121798692D01*
X71921153Y-121800499D01*
X71921156Y-121800500D01*
X71921158Y-121800500D01*
X72078844Y-121800500D01*
X72078845Y-121800499D01*
X72233497Y-121769737D01*
X72379179Y-121709394D01*
X72436044Y-121671397D01*
X72502721Y-121650520D01*
X72504935Y-121650500D01*
X74679192Y-121650500D01*
X74746231Y-121670185D01*
X74766873Y-121686819D01*
X75182984Y-122102930D01*
X75216469Y-122164253D01*
X75216920Y-122166420D01*
X75230261Y-122233489D01*
X75230264Y-122233501D01*
X75290602Y-122379172D01*
X75290609Y-122379185D01*
X75378210Y-122510288D01*
X75378213Y-122510292D01*
X75489707Y-122621786D01*
X75489711Y-122621789D01*
X75620814Y-122709390D01*
X75620827Y-122709397D01*
X75766498Y-122769735D01*
X75766503Y-122769737D01*
X75921153Y-122800499D01*
X75921156Y-122800500D01*
X75921158Y-122800500D01*
X76078844Y-122800500D01*
X76078845Y-122800499D01*
X76233497Y-122769737D01*
X76379179Y-122709394D01*
X76510289Y-122621789D01*
X76621789Y-122510289D01*
X76709394Y-122379179D01*
X76769737Y-122233497D01*
X76800500Y-122078842D01*
X76800500Y-121921158D01*
X76800500Y-121921155D01*
X76776140Y-121798692D01*
X76782367Y-121729100D01*
X76825230Y-121673923D01*
X76891120Y-121650678D01*
X76897757Y-121650500D01*
X77679192Y-121650500D01*
X77746231Y-121670185D01*
X77766873Y-121686819D01*
X78313181Y-122233127D01*
X78346666Y-122294450D01*
X78349500Y-122320808D01*
X78349500Y-136914012D01*
X78349500Y-136914014D01*
X78349499Y-136914014D01*
X78371678Y-137025506D01*
X78374499Y-137039686D01*
X78423534Y-137158068D01*
X78494726Y-137264616D01*
X78494727Y-137264617D01*
X85730091Y-144499980D01*
X85756971Y-144540207D01*
X85772534Y-144577780D01*
X85843726Y-144684327D01*
X86315674Y-145156275D01*
X86315677Y-145156277D01*
X86365765Y-145189744D01*
X86422219Y-145227465D01*
X86459790Y-145243027D01*
X86500018Y-145269907D01*
X89644781Y-148414669D01*
X89735388Y-148505276D01*
X89735389Y-148505277D01*
X89841923Y-148576461D01*
X89841929Y-148576464D01*
X89841930Y-148576465D01*
X89960313Y-148625501D01*
X89960317Y-148625501D01*
X89960318Y-148625502D01*
X90085985Y-148650500D01*
X90085988Y-148650500D01*
X99495065Y-148650500D01*
X99562104Y-148670185D01*
X99563909Y-148671366D01*
X99620821Y-148709394D01*
X99620823Y-148709395D01*
X99620827Y-148709397D01*
X99766498Y-148769735D01*
X99766503Y-148769737D01*
X99921153Y-148800499D01*
X99921156Y-148800500D01*
X99921158Y-148800500D01*
X100078844Y-148800500D01*
X100078845Y-148800499D01*
X100233497Y-148769737D01*
X100379179Y-148709394D01*
X100510289Y-148621789D01*
X100621789Y-148510289D01*
X100709394Y-148379179D01*
X100769737Y-148233497D01*
X100800500Y-148078842D01*
X100800500Y-147921158D01*
X100800500Y-147921155D01*
X100800499Y-147921153D01*
X100769738Y-147766510D01*
X100769737Y-147766503D01*
X100769735Y-147766498D01*
X100709397Y-147620827D01*
X100709390Y-147620814D01*
X100621789Y-147489711D01*
X100621786Y-147489707D01*
X100510292Y-147378213D01*
X100510288Y-147378210D01*
X100379185Y-147290609D01*
X100379172Y-147290602D01*
X100233501Y-147230264D01*
X100233489Y-147230261D01*
X100078845Y-147199500D01*
X100078842Y-147199500D01*
X99921158Y-147199500D01*
X99921155Y-147199500D01*
X99766510Y-147230261D01*
X99766498Y-147230264D01*
X99620827Y-147290602D01*
X99620820Y-147290606D01*
X99591928Y-147309911D01*
X99563955Y-147328602D01*
X99497279Y-147349480D01*
X99495065Y-147349500D01*
X90470864Y-147349500D01*
X90403825Y-147329815D01*
X90383183Y-147313181D01*
X88932184Y-145862181D01*
X88898699Y-145800858D01*
X88903683Y-145731166D01*
X88945555Y-145675233D01*
X89011019Y-145650816D01*
X89019865Y-145650500D01*
X98495065Y-145650500D01*
X98562104Y-145670185D01*
X98563909Y-145671366D01*
X98620821Y-145709394D01*
X98620823Y-145709395D01*
X98620827Y-145709397D01*
X98766498Y-145769735D01*
X98766503Y-145769737D01*
X98921153Y-145800499D01*
X98921156Y-145800500D01*
X98921158Y-145800500D01*
X99078844Y-145800500D01*
X99078845Y-145800499D01*
X99233497Y-145769737D01*
X99379179Y-145709394D01*
X99510289Y-145621789D01*
X99621789Y-145510289D01*
X99709394Y-145379179D01*
X99769737Y-145233497D01*
X99800500Y-145078842D01*
X99800500Y-144921158D01*
X99800500Y-144921155D01*
X99800499Y-144921153D01*
X99769738Y-144766510D01*
X99769737Y-144766503D01*
X99735699Y-144684327D01*
X99709397Y-144620827D01*
X99709390Y-144620814D01*
X99621789Y-144489711D01*
X99621786Y-144489707D01*
X99510292Y-144378213D01*
X99510288Y-144378210D01*
X99379185Y-144290609D01*
X99379172Y-144290602D01*
X99233501Y-144230264D01*
X99233489Y-144230261D01*
X99078845Y-144199500D01*
X99078842Y-144199500D01*
X98921158Y-144199500D01*
X98921155Y-144199500D01*
X98766510Y-144230261D01*
X98766498Y-144230264D01*
X98620827Y-144290602D01*
X98620820Y-144290606D01*
X98591928Y-144309911D01*
X98563955Y-144328602D01*
X98497279Y-144349480D01*
X98495065Y-144349500D01*
X88320808Y-144349500D01*
X88253769Y-144329815D01*
X88233127Y-144313181D01*
X87817015Y-143897069D01*
X87783530Y-143835746D01*
X87783093Y-143833652D01*
X87769737Y-143766503D01*
X87745599Y-143708230D01*
X87709397Y-143620827D01*
X87709390Y-143620814D01*
X87621789Y-143489711D01*
X87621786Y-143489707D01*
X87510292Y-143378213D01*
X87510288Y-143378210D01*
X87379185Y-143290609D01*
X87379172Y-143290602D01*
X87233501Y-143230264D01*
X87233489Y-143230261D01*
X87078845Y-143199500D01*
X87078842Y-143199500D01*
X86921158Y-143199500D01*
X86921155Y-143199500D01*
X86766510Y-143230261D01*
X86766498Y-143230264D01*
X86620827Y-143290602D01*
X86620814Y-143290609D01*
X86549449Y-143338295D01*
X86482772Y-143359173D01*
X86415392Y-143340689D01*
X86392877Y-143322874D01*
X79686819Y-136616816D01*
X79653334Y-136555493D01*
X79650500Y-136529135D01*
X79650500Y-129519995D01*
X79670185Y-129452956D01*
X79722989Y-129407201D01*
X79792147Y-129397257D01*
X79855703Y-129426282D01*
X79893477Y-129485060D01*
X79894784Y-129489866D01*
X80056483Y-130135410D01*
X80056486Y-130135419D01*
X80277406Y-130863697D01*
X80277408Y-130863704D01*
X80533780Y-131580214D01*
X80825010Y-132283307D01*
X80825016Y-132283322D01*
X80825020Y-132283332D01*
X80825022Y-132283335D01*
X81150405Y-132971300D01*
X81150410Y-132971309D01*
X81150416Y-132971322D01*
X81509149Y-133642464D01*
X81509154Y-133642472D01*
X81762942Y-134065892D01*
X81900402Y-134295229D01*
X82323208Y-134928004D01*
X82685630Y-135416672D01*
X82776559Y-135539275D01*
X82776566Y-135539283D01*
X83259351Y-136127561D01*
X83770420Y-136691437D01*
X84308562Y-137229579D01*
X84872438Y-137740648D01*
X85251368Y-138051626D01*
X85460730Y-138223445D01*
X86071996Y-138676792D01*
X86704771Y-139099598D01*
X86704778Y-139099602D01*
X87357527Y-139490845D01*
X87357535Y-139490850D01*
X88028677Y-139849583D01*
X88028681Y-139849585D01*
X88028700Y-139849595D01*
X88716665Y-140174978D01*
X89419766Y-140466212D01*
X89419781Y-140466217D01*
X89419785Y-140466219D01*
X90136295Y-140722591D01*
X90136302Y-140722593D01*
X90136306Y-140722594D01*
X90136311Y-140722596D01*
X90864573Y-140943512D01*
X91602798Y-141128427D01*
X92349207Y-141276897D01*
X93102002Y-141388564D01*
X93859369Y-141463158D01*
X94619484Y-141500500D01*
X94619498Y-141500500D01*
X95380502Y-141500500D01*
X95380516Y-141500500D01*
X96140631Y-141463158D01*
X96897998Y-141388564D01*
X97650793Y-141276897D01*
X98397202Y-141128427D01*
X99135427Y-140943512D01*
X99863689Y-140722596D01*
X99863698Y-140722592D01*
X99863704Y-140722591D01*
X100366417Y-140542716D01*
X100580234Y-140466212D01*
X101283335Y-140174978D01*
X101971300Y-139849595D01*
X102642470Y-139490847D01*
X103295229Y-139099598D01*
X103928004Y-138676792D01*
X104539270Y-138223445D01*
X105127556Y-137740652D01*
X105127561Y-137740648D01*
X105652780Y-137264616D01*
X105691443Y-137229574D01*
X106229574Y-136691443D01*
X106460437Y-136436724D01*
X106740648Y-136127561D01*
X106861094Y-135980797D01*
X107223445Y-135539270D01*
X107676792Y-134928004D01*
X108099598Y-134295229D01*
X108490847Y-133642470D01*
X108849595Y-132971300D01*
X109174978Y-132283335D01*
X109466212Y-131580234D01*
X109722596Y-130863689D01*
X109943512Y-130135427D01*
X110128427Y-129397202D01*
X110276897Y-128650793D01*
X110388564Y-127897998D01*
X110463158Y-127140631D01*
X110500500Y-126380516D01*
X110500500Y-125619484D01*
X110463158Y-124859369D01*
X110388564Y-124102002D01*
X110276897Y-123349207D01*
X110128427Y-122602798D01*
X109943512Y-121864573D01*
X109722596Y-121136311D01*
X109722593Y-121136302D01*
X109722591Y-121136295D01*
X109466219Y-120419785D01*
X109466217Y-120419781D01*
X109466212Y-120419766D01*
X109174978Y-119716665D01*
X108849595Y-119028700D01*
X108490847Y-118357530D01*
X108099598Y-117704771D01*
X107676792Y-117071996D01*
X107223445Y-116460730D01*
X107015472Y-116207314D01*
X106740648Y-115872438D01*
X106229579Y-115308562D01*
X105691437Y-114770420D01*
X105127561Y-114259351D01*
X104539283Y-113776566D01*
X104539275Y-113776559D01*
X104539270Y-113776555D01*
X103928004Y-113323208D01*
X103295229Y-112900402D01*
X102801061Y-112604209D01*
X102642472Y-112509154D01*
X102642464Y-112509149D01*
X101971322Y-112150416D01*
X101971309Y-112150410D01*
X101971300Y-112150405D01*
X101283335Y-111825022D01*
X101283332Y-111825020D01*
X101283322Y-111825016D01*
X101283307Y-111825010D01*
X100799341Y-111624545D01*
X100580234Y-111533788D01*
X100580228Y-111533786D01*
X100580214Y-111533780D01*
X99863704Y-111277408D01*
X99863697Y-111277406D01*
X99499558Y-111166946D01*
X99135427Y-111056488D01*
X99135418Y-111056485D01*
X99135410Y-111056483D01*
X98397207Y-110871574D01*
X97650792Y-110723102D01*
X96897985Y-110611434D01*
X96140632Y-110536842D01*
X96140638Y-110536842D01*
X95887259Y-110524394D01*
X95380516Y-110499500D01*
X94619484Y-110499500D01*
X94059399Y-110527015D01*
X93859364Y-110536842D01*
X93102014Y-110611434D01*
X92349207Y-110723102D01*
X91602792Y-110871574D01*
X90864589Y-111056483D01*
X90864580Y-111056486D01*
X90136302Y-111277406D01*
X90136295Y-111277408D01*
X89419785Y-111533780D01*
X88716692Y-111825010D01*
X88716677Y-111825016D01*
X88028677Y-112150416D01*
X87357535Y-112509149D01*
X87357527Y-112509154D01*
X86704778Y-112900397D01*
X86704767Y-112900404D01*
X86072013Y-113323196D01*
X86072004Y-113323202D01*
X86071996Y-113323208D01*
X85720672Y-113583767D01*
X85460724Y-113776559D01*
X85460716Y-113776566D01*
X84872438Y-114259351D01*
X84308562Y-114770420D01*
X83770420Y-115308562D01*
X83259351Y-115872438D01*
X82776566Y-116460716D01*
X82776559Y-116460724D01*
X82776555Y-116460730D01*
X82323208Y-117071996D01*
X82323202Y-117072004D01*
X82323196Y-117072013D01*
X81900404Y-117704767D01*
X81900397Y-117704778D01*
X81509154Y-118357527D01*
X81509149Y-118357535D01*
X81150416Y-119028677D01*
X80825016Y-119716677D01*
X80825010Y-119716692D01*
X80533780Y-120419785D01*
X80277408Y-121136295D01*
X80277406Y-121136302D01*
X80108876Y-121691874D01*
X80072966Y-121810254D01*
X80056486Y-121864580D01*
X80056483Y-121864589D01*
X79894784Y-122510133D01*
X79859400Y-122570381D01*
X79797061Y-122601934D01*
X79727559Y-122594776D01*
X79672960Y-122551178D01*
X79650600Y-122484983D01*
X79650500Y-122480004D01*
X79650500Y-121935928D01*
X79625502Y-121810260D01*
X79625500Y-121810254D01*
X79605189Y-121761221D01*
X79605187Y-121761216D01*
X79576468Y-121691878D01*
X79576462Y-121691868D01*
X79505278Y-121585332D01*
X79505272Y-121585325D01*
X78414673Y-120494726D01*
X78414669Y-120494723D01*
X78308127Y-120423535D01*
X78189744Y-120374499D01*
X78189738Y-120374497D01*
X78064071Y-120349500D01*
X78064069Y-120349500D01*
X76869808Y-120349500D01*
X76802769Y-120329815D01*
X76757014Y-120277011D01*
X76747070Y-120207853D01*
X76776095Y-120144297D01*
X76782127Y-120137819D01*
X88233127Y-108686819D01*
X88294450Y-108653334D01*
X88320808Y-108650500D01*
X90495065Y-108650500D01*
X90562104Y-108670185D01*
X90563909Y-108671366D01*
X90620821Y-108709394D01*
X90620823Y-108709395D01*
X90620827Y-108709397D01*
X90766498Y-108769735D01*
X90766503Y-108769737D01*
X90921153Y-108800499D01*
X90921156Y-108800500D01*
X90921158Y-108800500D01*
X91078844Y-108800500D01*
X91078845Y-108800499D01*
X91233497Y-108769737D01*
X91379179Y-108709394D01*
X91510289Y-108621789D01*
X91621789Y-108510289D01*
X91709394Y-108379179D01*
X91769737Y-108233497D01*
X91783079Y-108166416D01*
X91815463Y-108104509D01*
X91816959Y-108102985D01*
X94102931Y-105817013D01*
X94164252Y-105783530D01*
X94166317Y-105783099D01*
X94233497Y-105769737D01*
X94379179Y-105709394D01*
X94436044Y-105671397D01*
X94502721Y-105650520D01*
X94504935Y-105650500D01*
X100225500Y-105650500D01*
X100292539Y-105670185D01*
X100338294Y-105722989D01*
X100349500Y-105774500D01*
X100349500Y-106064069D01*
X100349500Y-106064071D01*
X100349499Y-106064071D01*
X100374497Y-106189738D01*
X100374499Y-106189744D01*
X100423534Y-106308125D01*
X100494726Y-106414673D01*
X100494727Y-106414674D01*
X114259202Y-120179148D01*
X114292687Y-120240471D01*
X114295521Y-120266829D01*
X114295521Y-122545476D01*
X114275836Y-122612515D01*
X114274624Y-122614366D01*
X114236629Y-122671229D01*
X114236623Y-122671240D01*
X114176285Y-122816910D01*
X114176282Y-122816922D01*
X114145521Y-122971565D01*
X114145521Y-123129258D01*
X114176282Y-123283901D01*
X114176285Y-123283913D01*
X114236623Y-123429584D01*
X114236627Y-123429591D01*
X114274623Y-123486456D01*
X114295501Y-123553133D01*
X114295521Y-123555347D01*
X114295521Y-125733170D01*
X114275836Y-125800209D01*
X114259202Y-125820851D01*
X111897068Y-128182984D01*
X111835745Y-128216469D01*
X111833579Y-128216920D01*
X111766508Y-128230261D01*
X111766498Y-128230264D01*
X111620827Y-128290602D01*
X111620814Y-128290609D01*
X111489711Y-128378210D01*
X111489707Y-128378213D01*
X111378213Y-128489707D01*
X111378210Y-128489711D01*
X111290609Y-128620814D01*
X111290602Y-128620827D01*
X111230264Y-128766498D01*
X111230261Y-128766510D01*
X111199500Y-128921153D01*
X111199500Y-129078846D01*
X111230261Y-129233489D01*
X111230264Y-129233501D01*
X111290602Y-129379172D01*
X111290609Y-129379185D01*
X111378210Y-129510288D01*
X111378213Y-129510292D01*
X111489707Y-129621786D01*
X111489711Y-129621789D01*
X111620814Y-129709390D01*
X111620827Y-129709397D01*
X111766498Y-129769735D01*
X111766503Y-129769737D01*
X111921153Y-129800499D01*
X111921156Y-129800500D01*
X111921158Y-129800500D01*
X112078844Y-129800500D01*
X112078845Y-129800499D01*
X112233497Y-129769737D01*
X112379179Y-129709394D01*
X112510289Y-129621789D01*
X112621789Y-129510289D01*
X112709394Y-129379179D01*
X112769737Y-129233497D01*
X112783079Y-129166416D01*
X112815463Y-129104509D01*
X112816959Y-129102985D01*
X115451298Y-126468648D01*
X115522486Y-126362106D01*
X115571522Y-126243723D01*
X115596521Y-126118048D01*
X115596521Y-123555347D01*
X115616206Y-123488308D01*
X115617387Y-123486502D01*
X115655415Y-123429591D01*
X115715758Y-123283909D01*
X115746521Y-123129254D01*
X115746521Y-122971570D01*
X115746521Y-122971567D01*
X115746520Y-122971565D01*
X115715759Y-122816922D01*
X115715758Y-122816915D01*
X115655415Y-122671233D01*
X115617417Y-122614365D01*
X115596541Y-122547688D01*
X115596521Y-122545476D01*
X115596521Y-119881949D01*
X115571523Y-119756282D01*
X115571522Y-119756281D01*
X115571522Y-119756277D01*
X115522486Y-119637894D01*
X115451298Y-119531352D01*
X115451296Y-119531350D01*
X115451294Y-119531347D01*
X101686819Y-105766872D01*
X101653334Y-105705549D01*
X101650500Y-105679191D01*
X101650500Y-71320808D01*
X101670185Y-71253769D01*
X101686819Y-71233127D01*
X107505271Y-65414675D01*
X107505276Y-65414670D01*
X107576465Y-65308127D01*
X107625501Y-65189744D01*
X107633682Y-65148615D01*
X107650500Y-65064071D01*
X107650500Y-62897757D01*
X107670185Y-62830718D01*
X107722989Y-62784963D01*
X107792147Y-62775019D01*
X107798692Y-62776140D01*
X107921155Y-62800500D01*
X107921158Y-62800500D01*
X108078844Y-62800500D01*
X108078845Y-62800499D01*
X108233497Y-62769737D01*
X108379179Y-62709394D01*
X108408599Y-62689736D01*
X108510291Y-62621788D01*
X108510292Y-62621786D01*
X108621786Y-62510292D01*
X108621789Y-62510289D01*
X108709394Y-62379179D01*
X108769737Y-62233497D01*
X108800500Y-62078842D01*
X108800500Y-61921158D01*
X108800500Y-61921155D01*
X108800499Y-61921153D01*
X108769738Y-61766510D01*
X108769737Y-61766503D01*
X108746080Y-61709390D01*
X108709397Y-61620827D01*
X108709390Y-61620814D01*
X108621789Y-61489711D01*
X108621786Y-61489707D01*
X108510292Y-61378213D01*
X108510288Y-61378210D01*
X108379185Y-61290609D01*
X108379172Y-61290602D01*
X108233501Y-61230264D01*
X108233489Y-61230261D01*
X108078845Y-61199500D01*
X108078842Y-61199500D01*
X107921158Y-61199500D01*
X107921153Y-61199500D01*
X107798691Y-61223859D01*
X107729099Y-61217632D01*
X107673922Y-61174768D01*
X107650678Y-61108879D01*
X107650500Y-61102242D01*
X107650500Y-47522808D01*
X107670185Y-47455769D01*
X107686819Y-47435127D01*
X107935127Y-47186819D01*
X107996450Y-47153334D01*
X108022808Y-47150500D01*
X108495065Y-47150500D01*
X108562104Y-47170185D01*
X108563909Y-47171366D01*
X108620821Y-47209394D01*
X108620823Y-47209395D01*
X108620827Y-47209397D01*
X108765798Y-47269445D01*
X108766503Y-47269737D01*
X108890738Y-47294449D01*
X108921153Y-47300499D01*
X108921156Y-47300500D01*
X108921158Y-47300500D01*
X109078844Y-47300500D01*
X109078845Y-47300499D01*
X109233497Y-47269737D01*
X109379179Y-47209394D01*
X109510289Y-47121789D01*
X109621789Y-47010289D01*
X109709394Y-46879179D01*
X109769737Y-46733497D01*
X109800500Y-46578842D01*
X109800500Y-46421158D01*
X109800500Y-46421155D01*
X109800499Y-46421153D01*
X109800244Y-46419872D01*
X109769737Y-46266503D01*
X109756062Y-46233489D01*
X109709397Y-46120827D01*
X109709390Y-46120814D01*
X109621789Y-45989711D01*
X109621786Y-45989707D01*
X109510292Y-45878213D01*
X109510288Y-45878210D01*
X109379185Y-45790609D01*
X109379172Y-45790602D01*
X109233501Y-45730264D01*
X109233489Y-45730261D01*
X109078845Y-45699500D01*
X109078842Y-45699500D01*
X108921158Y-45699500D01*
X108921155Y-45699500D01*
X108766510Y-45730261D01*
X108766498Y-45730264D01*
X108620827Y-45790602D01*
X108620820Y-45790606D01*
X108591928Y-45809911D01*
X108563955Y-45828602D01*
X108497279Y-45849480D01*
X108495065Y-45849500D01*
X107637929Y-45849500D01*
X107512261Y-45874497D01*
X107512255Y-45874499D01*
X107393874Y-45923534D01*
X107287326Y-45994726D01*
X107287325Y-45994727D01*
X106862181Y-46419872D01*
X106800858Y-46453357D01*
X106731166Y-46448373D01*
X106675233Y-46406501D01*
X106650816Y-46341037D01*
X106650500Y-46332191D01*
X106650500Y-45935928D01*
X106625502Y-45810261D01*
X106625501Y-45810260D01*
X106625501Y-45810256D01*
X106576465Y-45691873D01*
X106505277Y-45585331D01*
X106505275Y-45585329D01*
X106505273Y-45585326D01*
X106505272Y-45585325D01*
X103817014Y-42897068D01*
X103783529Y-42835745D01*
X103783105Y-42833714D01*
X103769737Y-42766503D01*
X103745599Y-42708230D01*
X103709397Y-42620827D01*
X103709390Y-42620814D01*
X103621789Y-42489711D01*
X103621786Y-42489707D01*
X103510292Y-42378213D01*
X103510288Y-42378210D01*
X103379185Y-42290609D01*
X103379172Y-42290602D01*
X103233501Y-42230264D01*
X103233489Y-42230261D01*
X103078845Y-42199500D01*
X103078842Y-42199500D01*
X102921158Y-42199500D01*
X102921155Y-42199500D01*
X102766510Y-42230261D01*
X102766498Y-42230264D01*
X102620827Y-42290602D01*
X102620814Y-42290609D01*
X102489711Y-42378210D01*
X102489707Y-42378213D01*
X102378213Y-42489707D01*
X102378210Y-42489711D01*
X102290609Y-42620814D01*
X102290602Y-42620827D01*
X102230264Y-42766498D01*
X102230261Y-42766510D01*
X102199500Y-42921153D01*
X102199500Y-43078846D01*
X102230261Y-43233489D01*
X102230264Y-43233501D01*
X102290602Y-43379172D01*
X102290609Y-43379185D01*
X102378210Y-43510288D01*
X102378213Y-43510292D01*
X102489707Y-43621786D01*
X102489711Y-43621789D01*
X102620814Y-43709390D01*
X102620827Y-43709397D01*
X102708230Y-43745599D01*
X102766503Y-43769737D01*
X102833580Y-43783079D01*
X102850337Y-43791844D01*
X102868815Y-43795864D01*
X102893849Y-43814604D01*
X102895490Y-43815463D01*
X102897069Y-43817015D01*
X103067873Y-43987819D01*
X103101358Y-44049142D01*
X103096374Y-44118834D01*
X103054502Y-44174767D01*
X102989038Y-44199184D01*
X102980192Y-44199500D01*
X102921155Y-44199500D01*
X102766510Y-44230261D01*
X102766498Y-44230264D01*
X102620827Y-44290602D01*
X102620814Y-44290609D01*
X102489711Y-44378210D01*
X102489707Y-44378213D01*
X102378213Y-44489707D01*
X102378210Y-44489711D01*
X102290609Y-44620814D01*
X102290602Y-44620827D01*
X102230264Y-44766498D01*
X102230261Y-44766510D01*
X102199500Y-44921153D01*
X102199500Y-45078846D01*
X102230261Y-45233489D01*
X102230264Y-45233501D01*
X102290602Y-45379172D01*
X102290609Y-45379185D01*
X102378210Y-45510288D01*
X102378213Y-45510292D01*
X102489707Y-45621786D01*
X102489711Y-45621789D01*
X102620814Y-45709390D01*
X102620827Y-45709397D01*
X102708230Y-45745599D01*
X102766503Y-45769737D01*
X102833581Y-45783079D01*
X102895490Y-45815463D01*
X102897070Y-45817015D01*
X104313181Y-47233126D01*
X104346666Y-47294449D01*
X104349500Y-47320807D01*
X104349500Y-50995064D01*
X104329815Y-51062103D01*
X104328603Y-51063954D01*
X104290608Y-51120817D01*
X104290602Y-51120828D01*
X104230264Y-51266498D01*
X104230261Y-51266510D01*
X104199500Y-51421153D01*
X104199500Y-51578846D01*
X104230261Y-51733489D01*
X104230264Y-51733501D01*
X104290602Y-51879172D01*
X104290606Y-51879179D01*
X104328602Y-51936044D01*
X104349480Y-52002721D01*
X104349500Y-52004935D01*
X104349500Y-58179191D01*
X104329815Y-58246230D01*
X104313181Y-58266872D01*
X103897068Y-58682984D01*
X103835745Y-58716469D01*
X103833579Y-58716920D01*
X103766508Y-58730261D01*
X103766498Y-58730264D01*
X103620827Y-58790602D01*
X103620820Y-58790606D01*
X103591928Y-58809911D01*
X103563955Y-58828602D01*
X103497279Y-58849480D01*
X103495065Y-58849500D01*
X93820808Y-58849500D01*
X93753769Y-58829815D01*
X93733127Y-58813181D01*
X92414674Y-57494727D01*
X92414673Y-57494726D01*
X92414669Y-57494723D01*
X92308127Y-57423535D01*
X92189744Y-57374499D01*
X92189738Y-57374497D01*
X92064071Y-57349500D01*
X92064069Y-57349500D01*
X80320808Y-57349500D01*
X80253769Y-57329815D01*
X80233127Y-57313181D01*
X79641099Y-56721153D01*
X97199500Y-56721153D01*
X97199500Y-56878846D01*
X97230261Y-57033489D01*
X97230264Y-57033501D01*
X97290602Y-57179172D01*
X97290609Y-57179185D01*
X97378210Y-57310288D01*
X97378213Y-57310292D01*
X97489707Y-57421786D01*
X97489711Y-57421789D01*
X97620814Y-57509390D01*
X97620827Y-57509397D01*
X97766498Y-57569735D01*
X97766503Y-57569737D01*
X97921153Y-57600499D01*
X97921156Y-57600500D01*
X97921158Y-57600500D01*
X98078844Y-57600500D01*
X98078845Y-57600499D01*
X98233497Y-57569737D01*
X98379179Y-57509394D01*
X98510289Y-57421789D01*
X98621789Y-57310289D01*
X98709394Y-57179179D01*
X98769737Y-57033497D01*
X98800500Y-56878842D01*
X98800500Y-56721158D01*
X98800500Y-56721155D01*
X98800499Y-56721153D01*
X98769738Y-56566510D01*
X98769737Y-56566503D01*
X98709394Y-56420821D01*
X98709388Y-56420812D01*
X98681708Y-56379384D01*
X98660831Y-56312706D01*
X98679317Y-56245327D01*
X98697126Y-56222818D01*
X100505276Y-54414669D01*
X100576465Y-54308127D01*
X100625501Y-54189744D01*
X100639018Y-54121789D01*
X100650500Y-54064069D01*
X100650500Y-41504935D01*
X100670185Y-41437896D01*
X100671366Y-41436090D01*
X100709394Y-41379179D01*
X100769737Y-41233497D01*
X100800500Y-41078842D01*
X100800500Y-40921158D01*
X100800500Y-40921155D01*
X100800499Y-40921153D01*
X100769738Y-40766510D01*
X100769737Y-40766503D01*
X100769735Y-40766498D01*
X100709397Y-40620827D01*
X100709390Y-40620814D01*
X100621789Y-40489711D01*
X100621786Y-40489707D01*
X100510292Y-40378213D01*
X100510288Y-40378210D01*
X100379185Y-40290609D01*
X100379172Y-40290602D01*
X100233501Y-40230264D01*
X100233489Y-40230261D01*
X100078845Y-40199500D01*
X100078842Y-40199500D01*
X99921158Y-40199500D01*
X99921155Y-40199500D01*
X99766510Y-40230261D01*
X99766498Y-40230264D01*
X99620827Y-40290602D01*
X99620814Y-40290609D01*
X99489711Y-40378210D01*
X99489707Y-40378213D01*
X99378213Y-40489707D01*
X99378210Y-40489711D01*
X99290609Y-40620814D01*
X99290602Y-40620827D01*
X99230264Y-40766498D01*
X99230261Y-40766510D01*
X99199500Y-40921153D01*
X99199500Y-41078846D01*
X99230261Y-41233489D01*
X99230264Y-41233501D01*
X99290602Y-41379172D01*
X99290606Y-41379179D01*
X99328602Y-41436044D01*
X99349480Y-41502721D01*
X99349500Y-41504935D01*
X99349500Y-53679191D01*
X99329815Y-53746230D01*
X99313181Y-53766872D01*
X97494727Y-55585325D01*
X97494726Y-55585326D01*
X97423534Y-55691874D01*
X97374499Y-55810255D01*
X97374497Y-55810261D01*
X97349500Y-55935928D01*
X97349500Y-56295064D01*
X97329815Y-56362103D01*
X97328603Y-56363954D01*
X97290608Y-56420817D01*
X97290602Y-56420828D01*
X97230264Y-56566498D01*
X97230261Y-56566510D01*
X97199500Y-56721153D01*
X79641099Y-56721153D01*
X77817015Y-54897069D01*
X77783530Y-54835746D01*
X77783093Y-54833652D01*
X77769737Y-54766503D01*
X77745599Y-54708230D01*
X77709397Y-54620827D01*
X77709390Y-54620814D01*
X77621789Y-54489711D01*
X77621786Y-54489707D01*
X77510292Y-54378213D01*
X77510288Y-54378210D01*
X77379185Y-54290609D01*
X77379172Y-54290602D01*
X77233501Y-54230264D01*
X77233489Y-54230261D01*
X77078845Y-54199500D01*
X77078842Y-54199500D01*
X76921158Y-54199500D01*
X76921155Y-54199500D01*
X76766510Y-54230261D01*
X76766498Y-54230264D01*
X76620827Y-54290602D01*
X76620814Y-54290609D01*
X76489711Y-54378210D01*
X76489707Y-54378213D01*
X76378213Y-54489707D01*
X76378210Y-54489711D01*
X76290609Y-54620814D01*
X76290602Y-54620827D01*
X76230264Y-54766498D01*
X76230261Y-54766510D01*
X76199500Y-54921153D01*
X76199500Y-55078846D01*
X76230261Y-55233489D01*
X76230264Y-55233501D01*
X76290602Y-55379172D01*
X76290609Y-55379185D01*
X76378210Y-55510288D01*
X76378213Y-55510292D01*
X76489707Y-55621786D01*
X76489711Y-55621789D01*
X76620814Y-55709390D01*
X76620827Y-55709397D01*
X76708230Y-55745599D01*
X76766503Y-55769737D01*
X76833580Y-55783079D01*
X76895488Y-55815461D01*
X76897068Y-55817014D01*
X79418872Y-58338819D01*
X79452357Y-58400142D01*
X79447373Y-58469834D01*
X79405501Y-58525767D01*
X79340037Y-58550184D01*
X79331191Y-58550500D01*
X78521808Y-58550500D01*
X78454769Y-58530815D01*
X78434127Y-58514181D01*
X77817015Y-57897069D01*
X77783530Y-57835746D01*
X77783093Y-57833652D01*
X77769737Y-57766503D01*
X77745599Y-57708230D01*
X77709397Y-57620827D01*
X77709390Y-57620814D01*
X77621789Y-57489711D01*
X77621786Y-57489707D01*
X77510292Y-57378213D01*
X77510288Y-57378210D01*
X77379185Y-57290609D01*
X77379172Y-57290602D01*
X77233501Y-57230264D01*
X77233489Y-57230261D01*
X77078845Y-57199500D01*
X77078842Y-57199500D01*
X76921158Y-57199500D01*
X76921155Y-57199500D01*
X76766510Y-57230261D01*
X76766498Y-57230264D01*
X76620827Y-57290602D01*
X76620814Y-57290609D01*
X76489711Y-57378210D01*
X76489707Y-57378213D01*
X76378213Y-57489707D01*
X76378210Y-57489711D01*
X76290609Y-57620814D01*
X76290602Y-57620827D01*
X76230264Y-57766498D01*
X76230261Y-57766510D01*
X76199500Y-57921153D01*
X76199500Y-58078846D01*
X76230261Y-58233489D01*
X76230264Y-58233501D01*
X76290602Y-58379172D01*
X76290609Y-58379185D01*
X76378210Y-58510288D01*
X76378213Y-58510292D01*
X76489707Y-58621786D01*
X76489711Y-58621789D01*
X76620814Y-58709390D01*
X76620827Y-58709397D01*
X76708230Y-58745599D01*
X76766503Y-58769737D01*
X76833580Y-58783079D01*
X76895488Y-58815461D01*
X76897068Y-58817014D01*
X77786324Y-59706271D01*
X77786327Y-59706274D01*
X77827071Y-59733498D01*
X77892866Y-59777461D01*
X77892872Y-59777464D01*
X77892873Y-59777465D01*
X78011256Y-59826501D01*
X78011260Y-59826501D01*
X78011261Y-59826502D01*
X78136928Y-59851500D01*
X78136931Y-59851500D01*
X88679192Y-59851500D01*
X88746231Y-59871185D01*
X88766873Y-59887819D01*
X90293724Y-61414669D01*
X90368762Y-61489707D01*
X90384332Y-61505277D01*
X90490866Y-61576461D01*
X90490872Y-61576464D01*
X90490873Y-61576465D01*
X90609256Y-61625501D01*
X90609260Y-61625501D01*
X90609261Y-61625502D01*
X90734928Y-61650500D01*
X90734931Y-61650500D01*
X103572707Y-61650500D01*
X103657251Y-61633682D01*
X103698380Y-61625501D01*
X103816763Y-61576465D01*
X103835315Y-61564069D01*
X103923305Y-61505277D01*
X104241763Y-61186819D01*
X104268690Y-61172115D01*
X104294509Y-61155523D01*
X104300709Y-61154631D01*
X104303086Y-61153334D01*
X104329444Y-61150500D01*
X104495065Y-61150500D01*
X104562104Y-61170185D01*
X104563909Y-61171366D01*
X104620821Y-61209394D01*
X104620823Y-61209395D01*
X104620827Y-61209397D01*
X104766498Y-61269735D01*
X104766503Y-61269737D01*
X104921153Y-61300499D01*
X104921156Y-61300500D01*
X104921158Y-61300500D01*
X105078844Y-61300500D01*
X105078845Y-61300499D01*
X105233497Y-61269737D01*
X105379179Y-61209394D01*
X105510289Y-61121789D01*
X105621789Y-61010289D01*
X105709394Y-60879179D01*
X105769737Y-60733497D01*
X105783079Y-60666416D01*
X105815463Y-60604509D01*
X105816956Y-60602988D01*
X106137820Y-60282125D01*
X106199142Y-60248641D01*
X106268834Y-60253625D01*
X106324767Y-60295497D01*
X106349184Y-60360961D01*
X106349500Y-60369807D01*
X106349500Y-64679192D01*
X106329815Y-64746231D01*
X106313181Y-64766873D01*
X100494722Y-70585331D01*
X100494718Y-70585336D01*
X100471010Y-70620820D01*
X100471010Y-70620821D01*
X100423534Y-70691874D01*
X100374499Y-70810255D01*
X100374497Y-70810261D01*
X100349500Y-70935928D01*
X100349500Y-104225500D01*
X100329815Y-104292539D01*
X100277011Y-104338294D01*
X100225500Y-104349500D01*
X94504935Y-104349500D01*
X94437896Y-104329815D01*
X94436090Y-104328633D01*
X94379179Y-104290606D01*
X94379172Y-104290602D01*
X94233501Y-104230264D01*
X94233489Y-104230261D01*
X94078845Y-104199500D01*
X94078842Y-104199500D01*
X93921158Y-104199500D01*
X93921155Y-104199500D01*
X93766510Y-104230261D01*
X93766498Y-104230264D01*
X93620827Y-104290602D01*
X93620814Y-104290609D01*
X93489711Y-104378210D01*
X93489707Y-104378213D01*
X93378213Y-104489707D01*
X93378210Y-104489711D01*
X93290609Y-104620814D01*
X93290602Y-104620827D01*
X93230264Y-104766498D01*
X93230261Y-104766508D01*
X93216920Y-104833579D01*
X93184535Y-104895490D01*
X93182984Y-104897068D01*
X90897068Y-107182984D01*
X90835745Y-107216469D01*
X90833579Y-107216920D01*
X90766508Y-107230261D01*
X90766498Y-107230264D01*
X90620827Y-107290602D01*
X90620820Y-107290606D01*
X90591928Y-107309911D01*
X90563955Y-107328602D01*
X90497279Y-107349480D01*
X90495065Y-107349500D01*
X87935929Y-107349500D01*
X87810261Y-107374497D01*
X87810255Y-107374499D01*
X87691870Y-107423535D01*
X87585331Y-107494722D01*
X87585324Y-107494728D01*
X74766873Y-120313181D01*
X74705550Y-120346666D01*
X74679192Y-120349500D01*
X72504935Y-120349500D01*
X72437896Y-120329815D01*
X72436090Y-120328633D01*
X72379179Y-120290606D01*
X72379172Y-120290602D01*
X72233501Y-120230264D01*
X72233489Y-120230261D01*
X72078845Y-120199500D01*
X72078842Y-120199500D01*
X71921158Y-120199500D01*
X71921155Y-120199500D01*
X71766510Y-120230261D01*
X71766498Y-120230264D01*
X71620827Y-120290602D01*
X71620814Y-120290609D01*
X71489711Y-120378210D01*
X71489707Y-120378213D01*
X71378213Y-120489707D01*
X71378210Y-120489711D01*
X71290609Y-120620814D01*
X71290602Y-120620827D01*
X71230264Y-120766498D01*
X71230261Y-120766510D01*
X71199500Y-120921153D01*
X70500500Y-120921153D01*
X70500500Y-116258676D01*
X70520185Y-116191637D01*
X70536819Y-116170995D01*
X78328642Y-108379172D01*
X86400500Y-100307314D01*
X86466392Y-100193186D01*
X86500500Y-100065892D01*
X86500500Y-99934108D01*
X86500500Y-80934108D01*
X86466392Y-80806814D01*
X86400500Y-80692686D01*
X86307314Y-80599500D01*
X79628967Y-73921153D01*
X85199500Y-73921153D01*
X85199500Y-74078846D01*
X85230261Y-74233489D01*
X85230264Y-74233501D01*
X85290602Y-74379172D01*
X85290606Y-74379179D01*
X85328602Y-74436044D01*
X85349480Y-74502721D01*
X85349500Y-74504935D01*
X85349500Y-76495064D01*
X85329815Y-76562103D01*
X85328603Y-76563954D01*
X85290608Y-76620817D01*
X85290602Y-76620828D01*
X85230264Y-76766498D01*
X85230261Y-76766510D01*
X85199500Y-76921153D01*
X85199500Y-77078846D01*
X85230261Y-77233489D01*
X85230264Y-77233501D01*
X85290602Y-77379172D01*
X85290609Y-77379185D01*
X85378210Y-77510288D01*
X85378213Y-77510292D01*
X85489707Y-77621786D01*
X85489711Y-77621789D01*
X85620814Y-77709390D01*
X85620827Y-77709397D01*
X85758683Y-77766498D01*
X85766503Y-77769737D01*
X85921153Y-77800499D01*
X85921156Y-77800500D01*
X85921158Y-77800500D01*
X86078844Y-77800500D01*
X86078845Y-77800499D01*
X86233497Y-77769737D01*
X86379179Y-77709394D01*
X86510289Y-77621789D01*
X86621789Y-77510289D01*
X86709394Y-77379179D01*
X86769737Y-77233497D01*
X86800500Y-77078842D01*
X86800500Y-76921158D01*
X86800500Y-76921155D01*
X86800499Y-76921153D01*
X86769738Y-76766510D01*
X86769737Y-76766503D01*
X86709394Y-76620821D01*
X86671396Y-76563953D01*
X86650520Y-76497276D01*
X86650500Y-76495064D01*
X86650500Y-74504935D01*
X86670185Y-74437896D01*
X86671366Y-74436090D01*
X86709394Y-74379179D01*
X86769737Y-74233497D01*
X86800500Y-74078842D01*
X86800500Y-73921158D01*
X86800500Y-73921155D01*
X86800499Y-73921153D01*
X86778440Y-73810255D01*
X86769737Y-73766503D01*
X86738825Y-73691874D01*
X86709397Y-73620827D01*
X86709390Y-73620814D01*
X86621789Y-73489711D01*
X86621786Y-73489707D01*
X86510292Y-73378213D01*
X86510288Y-73378210D01*
X86379185Y-73290609D01*
X86379172Y-73290602D01*
X86233501Y-73230264D01*
X86233489Y-73230261D01*
X86078845Y-73199500D01*
X86078842Y-73199500D01*
X85921158Y-73199500D01*
X85921155Y-73199500D01*
X85766510Y-73230261D01*
X85766498Y-73230264D01*
X85620827Y-73290602D01*
X85620814Y-73290609D01*
X85489711Y-73378210D01*
X85489707Y-73378213D01*
X85378213Y-73489707D01*
X85378210Y-73489711D01*
X85290609Y-73620814D01*
X85290602Y-73620827D01*
X85230264Y-73766498D01*
X85230261Y-73766510D01*
X85199500Y-73921153D01*
X79628967Y-73921153D01*
X70536819Y-64829005D01*
X70503334Y-64767682D01*
X70500500Y-64741324D01*
X70500500Y-63921153D01*
X84199500Y-63921153D01*
X84199500Y-64078846D01*
X84230261Y-64233489D01*
X84230264Y-64233501D01*
X84290602Y-64379172D01*
X84290609Y-64379185D01*
X84378210Y-64510288D01*
X84378213Y-64510292D01*
X84489707Y-64621786D01*
X84489711Y-64621789D01*
X84620814Y-64709390D01*
X84620827Y-64709397D01*
X84671906Y-64730554D01*
X84766503Y-64769737D01*
X84833580Y-64783079D01*
X84895490Y-64815463D01*
X84897069Y-64817015D01*
X87313181Y-67233127D01*
X87346666Y-67294450D01*
X87349500Y-67320808D01*
X87349500Y-75495064D01*
X87329815Y-75562103D01*
X87328603Y-75563954D01*
X87290608Y-75620817D01*
X87290602Y-75620828D01*
X87230264Y-75766498D01*
X87230261Y-75766510D01*
X87199500Y-75921153D01*
X87199500Y-76078846D01*
X87230261Y-76233489D01*
X87230264Y-76233501D01*
X87290602Y-76379172D01*
X87290609Y-76379185D01*
X87378210Y-76510288D01*
X87378213Y-76510292D01*
X87489707Y-76621786D01*
X87489711Y-76621789D01*
X87620814Y-76709390D01*
X87620827Y-76709397D01*
X87758683Y-76766498D01*
X87766503Y-76769737D01*
X87921153Y-76800499D01*
X87921156Y-76800500D01*
X87921158Y-76800500D01*
X88078844Y-76800500D01*
X88078845Y-76800499D01*
X88233497Y-76769737D01*
X88379179Y-76709394D01*
X88510289Y-76621789D01*
X88621789Y-76510289D01*
X88709394Y-76379179D01*
X88769737Y-76233497D01*
X88800500Y-76078842D01*
X88800500Y-75921158D01*
X88800500Y-75921155D01*
X88800499Y-75921153D01*
X88769738Y-75766510D01*
X88769737Y-75766503D01*
X88709394Y-75620821D01*
X88671396Y-75563953D01*
X88650520Y-75497276D01*
X88650500Y-75495064D01*
X88650500Y-66935928D01*
X88625502Y-66810261D01*
X88625501Y-66810260D01*
X88625501Y-66810256D01*
X88576465Y-66691873D01*
X88505277Y-66585331D01*
X88505275Y-66585329D01*
X88505273Y-66585326D01*
X88505272Y-66585325D01*
X85817014Y-63897068D01*
X85783529Y-63835745D01*
X85783105Y-63833714D01*
X85769737Y-63766503D01*
X85745599Y-63708230D01*
X85709397Y-63620827D01*
X85709390Y-63620814D01*
X85621789Y-63489711D01*
X85621786Y-63489707D01*
X85510292Y-63378213D01*
X85510288Y-63378210D01*
X85379185Y-63290609D01*
X85379172Y-63290602D01*
X85233501Y-63230264D01*
X85233489Y-63230261D01*
X85078845Y-63199500D01*
X85078842Y-63199500D01*
X84921158Y-63199500D01*
X84921155Y-63199500D01*
X84766510Y-63230261D01*
X84766498Y-63230264D01*
X84620827Y-63290602D01*
X84620814Y-63290609D01*
X84489711Y-63378210D01*
X84489707Y-63378213D01*
X84378213Y-63489707D01*
X84378210Y-63489711D01*
X84290609Y-63620814D01*
X84290602Y-63620827D01*
X84230264Y-63766498D01*
X84230261Y-63766510D01*
X84199500Y-63921153D01*
X70500500Y-63921153D01*
X70500500Y-60921153D01*
X86199500Y-60921153D01*
X86199500Y-61078846D01*
X86230261Y-61233489D01*
X86230264Y-61233501D01*
X86290602Y-61379172D01*
X86290609Y-61379185D01*
X86378210Y-61510288D01*
X86378213Y-61510292D01*
X86489707Y-61621786D01*
X86489711Y-61621789D01*
X86620814Y-61709390D01*
X86620827Y-61709397D01*
X86733554Y-61756089D01*
X86758712Y-61766510D01*
X86772131Y-61772068D01*
X86771114Y-61774522D01*
X86819930Y-61806510D01*
X86848390Y-61870321D01*
X86849500Y-61886878D01*
X86849500Y-62564069D01*
X86860981Y-62621786D01*
X86860982Y-62621788D01*
X86860982Y-62621791D01*
X86874497Y-62689736D01*
X86874499Y-62689744D01*
X86923534Y-62808125D01*
X86994726Y-62914673D01*
X86994727Y-62914674D01*
X91313181Y-67233127D01*
X91346666Y-67294450D01*
X91349500Y-67320808D01*
X91349500Y-79523977D01*
X91340061Y-79571429D01*
X91279764Y-79716998D01*
X91279761Y-79717010D01*
X91249000Y-79871653D01*
X91249000Y-80029346D01*
X91279761Y-80183989D01*
X91279764Y-80184001D01*
X91340102Y-80329672D01*
X91340109Y-80329685D01*
X91427710Y-80460788D01*
X91427713Y-80460792D01*
X91539207Y-80572286D01*
X91539211Y-80572289D01*
X91670314Y-80659890D01*
X91670327Y-80659897D01*
X91749481Y-80692683D01*
X91816003Y-80720237D01*
X91970653Y-80750999D01*
X91970656Y-80751000D01*
X91970658Y-80751000D01*
X92128344Y-80751000D01*
X92128345Y-80750999D01*
X92282997Y-80720237D01*
X92428679Y-80659894D01*
X92559789Y-80572289D01*
X92671289Y-80460789D01*
X92758894Y-80329679D01*
X92819237Y-80183997D01*
X92850000Y-80029342D01*
X92850000Y-79871658D01*
X92850000Y-79871655D01*
X92849999Y-79871653D01*
X92819238Y-79717010D01*
X92819237Y-79717003D01*
X92758939Y-79571429D01*
X92758897Y-79571327D01*
X92758890Y-79571314D01*
X92671398Y-79440373D01*
X92650520Y-79373695D01*
X92650500Y-79371482D01*
X92650500Y-77921153D01*
X93199500Y-77921153D01*
X93199500Y-78078846D01*
X93230261Y-78233489D01*
X93230264Y-78233501D01*
X93290602Y-78379172D01*
X93290609Y-78379185D01*
X93378210Y-78510288D01*
X93378213Y-78510292D01*
X93489707Y-78621786D01*
X93489711Y-78621789D01*
X93620814Y-78709390D01*
X93620827Y-78709397D01*
X93766498Y-78769735D01*
X93766503Y-78769737D01*
X93921153Y-78800499D01*
X93921156Y-78800500D01*
X93921158Y-78800500D01*
X94078844Y-78800500D01*
X94078845Y-78800499D01*
X94233497Y-78769737D01*
X94379179Y-78709394D01*
X94510289Y-78621789D01*
X94621789Y-78510289D01*
X94709394Y-78379179D01*
X94769737Y-78233497D01*
X94800500Y-78078842D01*
X94800500Y-77921158D01*
X94800500Y-77921155D01*
X94800499Y-77921153D01*
X94769738Y-77766510D01*
X94769737Y-77766503D01*
X94709394Y-77620821D01*
X94671396Y-77563953D01*
X94650520Y-77497276D01*
X94650500Y-77495064D01*
X94650500Y-74320807D01*
X94670185Y-74253768D01*
X94686814Y-74233131D01*
X95151206Y-73768739D01*
X95212528Y-73735255D01*
X95282220Y-73740239D01*
X95338153Y-73782111D01*
X95362570Y-73847575D01*
X95360503Y-73880612D01*
X95349500Y-73935926D01*
X95349500Y-81495064D01*
X95329815Y-81562103D01*
X95328603Y-81563954D01*
X95290608Y-81620817D01*
X95290602Y-81620828D01*
X95230264Y-81766498D01*
X95230261Y-81766510D01*
X95199500Y-81921153D01*
X95199500Y-82078846D01*
X95230261Y-82233489D01*
X95230264Y-82233501D01*
X95290602Y-82379172D01*
X95290609Y-82379185D01*
X95378210Y-82510288D01*
X95378213Y-82510292D01*
X95489707Y-82621786D01*
X95489711Y-82621789D01*
X95620814Y-82709390D01*
X95620827Y-82709397D01*
X95766498Y-82769735D01*
X95766503Y-82769737D01*
X95921153Y-82800499D01*
X95921156Y-82800500D01*
X95921158Y-82800500D01*
X96078844Y-82800500D01*
X96078845Y-82800499D01*
X96233497Y-82769737D01*
X96379179Y-82709394D01*
X96510289Y-82621789D01*
X96621789Y-82510289D01*
X96709394Y-82379179D01*
X96769737Y-82233497D01*
X96800500Y-82078842D01*
X96800500Y-81921158D01*
X96800500Y-81921155D01*
X96800499Y-81921153D01*
X96769738Y-81766510D01*
X96769737Y-81766503D01*
X96766025Y-81757541D01*
X96709397Y-81620828D01*
X96709396Y-81620827D01*
X96709394Y-81620821D01*
X96671396Y-81563953D01*
X96650520Y-81497276D01*
X96650500Y-81495064D01*
X96650500Y-74320807D01*
X96670185Y-74253768D01*
X96686819Y-74233126D01*
X97987819Y-72932126D01*
X98049142Y-72898641D01*
X98118834Y-72903625D01*
X98174767Y-72945497D01*
X98199184Y-73010961D01*
X98199500Y-73019807D01*
X98199500Y-73078846D01*
X98230261Y-73233489D01*
X98230264Y-73233501D01*
X98290602Y-73379172D01*
X98290606Y-73379179D01*
X98328602Y-73436044D01*
X98349480Y-73502721D01*
X98349500Y-73504935D01*
X98349500Y-80387814D01*
X98329815Y-80454853D01*
X98328602Y-80456705D01*
X98247651Y-80577855D01*
X98247644Y-80577868D01*
X98187306Y-80723539D01*
X98187303Y-80723551D01*
X98156542Y-80878194D01*
X98156542Y-81035887D01*
X98187303Y-81190530D01*
X98187306Y-81190542D01*
X98247644Y-81336213D01*
X98247651Y-81336226D01*
X98335252Y-81467329D01*
X98335255Y-81467333D01*
X98446749Y-81578827D01*
X98446753Y-81578830D01*
X98577856Y-81666431D01*
X98577869Y-81666438D01*
X98723540Y-81726776D01*
X98723545Y-81726778D01*
X98878195Y-81757540D01*
X98878198Y-81757541D01*
X98878200Y-81757541D01*
X99035886Y-81757541D01*
X99035887Y-81757540D01*
X99190539Y-81726778D01*
X99336221Y-81666435D01*
X99467331Y-81578830D01*
X99578831Y-81467330D01*
X99666436Y-81336220D01*
X99726779Y-81190538D01*
X99757542Y-81035883D01*
X99757542Y-80878199D01*
X99757542Y-80878196D01*
X99757541Y-80878194D01*
X99726779Y-80723544D01*
X99666436Y-80577862D01*
X99665139Y-80575435D01*
X99664692Y-80573652D01*
X99664105Y-80572234D01*
X99664315Y-80572146D01*
X99650500Y-80516987D01*
X99650500Y-73504935D01*
X99670185Y-73437896D01*
X99671366Y-73436090D01*
X99709394Y-73379179D01*
X99769737Y-73233497D01*
X99800500Y-73078842D01*
X99800500Y-72921158D01*
X99800500Y-72921155D01*
X99800499Y-72921153D01*
X99769738Y-72766510D01*
X99769737Y-72766503D01*
X99769735Y-72766498D01*
X99709397Y-72620827D01*
X99709390Y-72620814D01*
X99621789Y-72489711D01*
X99621786Y-72489707D01*
X99510292Y-72378213D01*
X99510288Y-72378210D01*
X99379185Y-72290609D01*
X99379172Y-72290602D01*
X99233501Y-72230264D01*
X99233489Y-72230261D01*
X99078845Y-72199500D01*
X99078842Y-72199500D01*
X98924500Y-72199500D01*
X98857461Y-72179815D01*
X98811706Y-72127011D01*
X98800500Y-72075500D01*
X98800500Y-71921155D01*
X98800499Y-71921153D01*
X98790418Y-71870472D01*
X98769737Y-71766503D01*
X98769735Y-71766498D01*
X98709397Y-71620827D01*
X98709390Y-71620814D01*
X98621789Y-71489711D01*
X98621786Y-71489707D01*
X98510292Y-71378213D01*
X98510288Y-71378210D01*
X98379185Y-71290609D01*
X98379172Y-71290602D01*
X98233501Y-71230264D01*
X98233489Y-71230261D01*
X98078845Y-71199500D01*
X98078842Y-71199500D01*
X97924500Y-71199500D01*
X97857461Y-71179815D01*
X97811706Y-71127011D01*
X97800500Y-71075500D01*
X97800500Y-70921155D01*
X97800499Y-70921153D01*
X97769738Y-70766510D01*
X97769738Y-70766508D01*
X97769737Y-70766503D01*
X97738825Y-70691874D01*
X97709397Y-70620827D01*
X97709390Y-70620814D01*
X97621789Y-70489711D01*
X97621786Y-70489707D01*
X97510292Y-70378213D01*
X97510288Y-70378210D01*
X97379185Y-70290609D01*
X97379172Y-70290602D01*
X97233501Y-70230264D01*
X97233489Y-70230261D01*
X97078845Y-70199500D01*
X97078842Y-70199500D01*
X96921158Y-70199500D01*
X96921155Y-70199500D01*
X96766510Y-70230261D01*
X96766498Y-70230264D01*
X96620827Y-70290602D01*
X96620814Y-70290609D01*
X96489711Y-70378210D01*
X96489707Y-70378213D01*
X96378213Y-70489707D01*
X96378210Y-70489711D01*
X96290609Y-70620814D01*
X96290602Y-70620827D01*
X96230264Y-70766498D01*
X96230261Y-70766508D01*
X96216920Y-70833579D01*
X96184535Y-70895490D01*
X96182984Y-70897068D01*
X93494726Y-73585326D01*
X93423534Y-73691874D01*
X93374499Y-73810255D01*
X93374497Y-73810261D01*
X93349500Y-73935928D01*
X93349500Y-77495064D01*
X93329815Y-77562103D01*
X93328603Y-77563954D01*
X93290608Y-77620817D01*
X93290602Y-77620828D01*
X93230264Y-77766498D01*
X93230261Y-77766510D01*
X93199500Y-77921153D01*
X92650500Y-77921153D01*
X92650500Y-66935928D01*
X92625502Y-66810261D01*
X92625501Y-66810260D01*
X92625501Y-66810256D01*
X92576465Y-66691873D01*
X92505277Y-66585331D01*
X92505275Y-66585329D01*
X92505273Y-66585326D01*
X88186819Y-62266872D01*
X88153334Y-62205549D01*
X88150500Y-62179191D01*
X88150500Y-61435928D01*
X88125502Y-61310261D01*
X88125501Y-61310260D01*
X88125501Y-61310256D01*
X88108718Y-61269738D01*
X88076467Y-61191877D01*
X88076464Y-61191871D01*
X88075045Y-61189747D01*
X88005275Y-61085328D01*
X88005272Y-61085325D01*
X87817014Y-60897068D01*
X87783529Y-60835745D01*
X87783105Y-60833714D01*
X87769737Y-60766503D01*
X87713001Y-60629528D01*
X87709397Y-60620827D01*
X87709390Y-60620814D01*
X87621789Y-60489711D01*
X87621786Y-60489707D01*
X87510292Y-60378213D01*
X87510288Y-60378210D01*
X87379185Y-60290609D01*
X87379172Y-60290602D01*
X87233501Y-60230264D01*
X87233489Y-60230261D01*
X87078845Y-60199500D01*
X87078842Y-60199500D01*
X86921158Y-60199500D01*
X86921155Y-60199500D01*
X86766510Y-60230261D01*
X86766498Y-60230264D01*
X86620827Y-60290602D01*
X86620814Y-60290609D01*
X86489711Y-60378210D01*
X86489707Y-60378213D01*
X86378213Y-60489707D01*
X86378210Y-60489711D01*
X86290609Y-60620814D01*
X86290602Y-60620827D01*
X86230264Y-60766498D01*
X86230261Y-60766510D01*
X86199500Y-60921153D01*
X70500500Y-60921153D01*
X70500500Y-51921153D01*
X76199500Y-51921153D01*
X76199500Y-52078846D01*
X76230261Y-52233489D01*
X76230264Y-52233501D01*
X76290602Y-52379172D01*
X76290609Y-52379185D01*
X76378210Y-52510288D01*
X76378213Y-52510292D01*
X76489707Y-52621786D01*
X76489711Y-52621789D01*
X76620814Y-52709390D01*
X76620827Y-52709397D01*
X76766498Y-52769735D01*
X76766503Y-52769737D01*
X76921153Y-52800499D01*
X76921156Y-52800500D01*
X76921158Y-52800500D01*
X77078844Y-52800500D01*
X77078845Y-52800499D01*
X77233497Y-52769737D01*
X77379179Y-52709394D01*
X77436044Y-52671397D01*
X77502721Y-52650520D01*
X77504935Y-52650500D01*
X97495065Y-52650500D01*
X97562104Y-52670185D01*
X97563909Y-52671366D01*
X97620821Y-52709394D01*
X97620823Y-52709395D01*
X97620827Y-52709397D01*
X97766498Y-52769735D01*
X97766503Y-52769737D01*
X97921153Y-52800499D01*
X97921156Y-52800500D01*
X97921158Y-52800500D01*
X98078844Y-52800500D01*
X98078845Y-52800499D01*
X98233497Y-52769737D01*
X98379179Y-52709394D01*
X98510289Y-52621789D01*
X98621789Y-52510289D01*
X98709394Y-52379179D01*
X98769737Y-52233497D01*
X98800500Y-52078842D01*
X98800500Y-51921158D01*
X98800500Y-51921155D01*
X98800499Y-51921153D01*
X98769738Y-51766510D01*
X98769737Y-51766503D01*
X98756062Y-51733489D01*
X98709397Y-51620827D01*
X98709390Y-51620814D01*
X98621789Y-51489711D01*
X98621786Y-51489707D01*
X98510292Y-51378213D01*
X98510288Y-51378210D01*
X98379185Y-51290609D01*
X98379172Y-51290602D01*
X98233501Y-51230264D01*
X98233489Y-51230261D01*
X98166420Y-51216920D01*
X98104509Y-51184535D01*
X98102930Y-51182984D01*
X96268741Y-49348794D01*
X96235256Y-49287471D01*
X96240240Y-49217779D01*
X96282112Y-49161846D01*
X96347576Y-49137429D01*
X96380609Y-49139495D01*
X96435931Y-49150500D01*
X97495065Y-49150500D01*
X97562104Y-49170185D01*
X97563909Y-49171366D01*
X97620821Y-49209394D01*
X97620823Y-49209395D01*
X97620827Y-49209397D01*
X97766498Y-49269735D01*
X97766503Y-49269737D01*
X97921153Y-49300499D01*
X97921156Y-49300500D01*
X97921158Y-49300500D01*
X98078844Y-49300500D01*
X98078845Y-49300499D01*
X98233497Y-49269737D01*
X98379179Y-49209394D01*
X98510289Y-49121789D01*
X98621789Y-49010289D01*
X98709394Y-48879179D01*
X98769737Y-48733497D01*
X98800500Y-48578842D01*
X98800500Y-48421158D01*
X98800500Y-48421155D01*
X98800499Y-48421153D01*
X98769738Y-48266510D01*
X98769737Y-48266503D01*
X98756062Y-48233489D01*
X98709397Y-48120827D01*
X98709390Y-48120814D01*
X98621789Y-47989711D01*
X98621786Y-47989707D01*
X98510292Y-47878213D01*
X98510288Y-47878210D01*
X98379185Y-47790609D01*
X98379172Y-47790602D01*
X98233501Y-47730264D01*
X98233489Y-47730261D01*
X98078845Y-47699500D01*
X98078842Y-47699500D01*
X97921158Y-47699500D01*
X97921155Y-47699500D01*
X97766510Y-47730261D01*
X97766498Y-47730264D01*
X97620827Y-47790602D01*
X97620820Y-47790606D01*
X97591928Y-47809911D01*
X97563955Y-47828602D01*
X97497279Y-47849480D01*
X97495065Y-47849500D01*
X96820808Y-47849500D01*
X96753769Y-47829815D01*
X96733127Y-47813181D01*
X94817015Y-45897069D01*
X94783530Y-45835746D01*
X94783093Y-45833652D01*
X94769737Y-45766503D01*
X94738825Y-45691874D01*
X94709397Y-45620827D01*
X94709390Y-45620814D01*
X94621789Y-45489711D01*
X94621786Y-45489707D01*
X94510292Y-45378213D01*
X94510288Y-45378210D01*
X94379185Y-45290609D01*
X94379172Y-45290602D01*
X94233501Y-45230264D01*
X94233489Y-45230261D01*
X94078845Y-45199500D01*
X94078842Y-45199500D01*
X93921158Y-45199500D01*
X93921155Y-45199500D01*
X93766510Y-45230261D01*
X93766498Y-45230264D01*
X93620827Y-45290602D01*
X93620814Y-45290609D01*
X93489711Y-45378210D01*
X93489707Y-45378213D01*
X93378213Y-45489707D01*
X93378210Y-45489711D01*
X93290609Y-45620814D01*
X93290602Y-45620827D01*
X93230264Y-45766498D01*
X93230261Y-45766510D01*
X93199500Y-45921153D01*
X93199500Y-46078846D01*
X93230261Y-46233489D01*
X93230264Y-46233501D01*
X93290602Y-46379172D01*
X93290609Y-46379185D01*
X93378210Y-46510288D01*
X93378213Y-46510292D01*
X93489707Y-46621786D01*
X93489711Y-46621789D01*
X93620814Y-46709390D01*
X93620827Y-46709397D01*
X93708230Y-46745599D01*
X93766503Y-46769737D01*
X93833580Y-46783079D01*
X93895488Y-46815461D01*
X93897068Y-46817014D01*
X94231258Y-47151205D01*
X94264743Y-47212528D01*
X94259759Y-47282220D01*
X94217887Y-47338153D01*
X94152423Y-47362570D01*
X94119385Y-47360503D01*
X94064071Y-47349500D01*
X94064069Y-47349500D01*
X91504935Y-47349500D01*
X91437896Y-47329815D01*
X91436090Y-47328633D01*
X91379179Y-47290606D01*
X91379172Y-47290602D01*
X91233501Y-47230264D01*
X91233489Y-47230261D01*
X91078845Y-47199500D01*
X91078842Y-47199500D01*
X90921158Y-47199500D01*
X90921155Y-47199500D01*
X90766510Y-47230261D01*
X90766498Y-47230264D01*
X90620827Y-47290602D01*
X90620814Y-47290609D01*
X90489711Y-47378210D01*
X90489707Y-47378213D01*
X90378213Y-47489707D01*
X90378210Y-47489711D01*
X90290609Y-47620814D01*
X90290602Y-47620827D01*
X90230264Y-47766498D01*
X90230261Y-47766510D01*
X90199500Y-47921153D01*
X90199500Y-48078846D01*
X90230261Y-48233489D01*
X90230264Y-48233501D01*
X90290602Y-48379172D01*
X90290609Y-48379185D01*
X90378210Y-48510288D01*
X90378213Y-48510292D01*
X90489707Y-48621786D01*
X90489711Y-48621789D01*
X90620814Y-48709390D01*
X90620827Y-48709397D01*
X90766498Y-48769735D01*
X90766503Y-48769737D01*
X90921153Y-48800499D01*
X90921156Y-48800500D01*
X90921158Y-48800500D01*
X91078844Y-48800500D01*
X91078845Y-48800499D01*
X91233497Y-48769737D01*
X91379179Y-48709394D01*
X91436044Y-48671397D01*
X91502721Y-48650520D01*
X91504935Y-48650500D01*
X93679192Y-48650500D01*
X93746231Y-48670185D01*
X93766873Y-48686819D01*
X96217873Y-51137819D01*
X96251358Y-51199142D01*
X96246374Y-51268834D01*
X96204502Y-51324767D01*
X96139038Y-51349184D01*
X96130192Y-51349500D01*
X77504935Y-51349500D01*
X77437896Y-51329815D01*
X77436090Y-51328633D01*
X77379179Y-51290606D01*
X77379172Y-51290602D01*
X77233501Y-51230264D01*
X77233489Y-51230261D01*
X77078845Y-51199500D01*
X77078842Y-51199500D01*
X76921158Y-51199500D01*
X76921155Y-51199500D01*
X76766510Y-51230261D01*
X76766498Y-51230264D01*
X76620827Y-51290602D01*
X76620814Y-51290609D01*
X76489711Y-51378210D01*
X76489707Y-51378213D01*
X76378213Y-51489707D01*
X76378210Y-51489711D01*
X76290609Y-51620814D01*
X76290602Y-51620827D01*
X76230264Y-51766498D01*
X76230261Y-51766510D01*
X76199500Y-51921153D01*
X70500500Y-51921153D01*
X70500500Y-33897397D01*
X73696300Y-33897397D01*
X73696300Y-34102602D01*
X73728402Y-34305285D01*
X73728402Y-34305288D01*
X73791812Y-34500444D01*
X73791813Y-34500447D01*
X73884976Y-34683288D01*
X74005594Y-34849303D01*
X74150697Y-34994406D01*
X74316712Y-35115024D01*
X74406390Y-35160717D01*
X74499552Y-35208186D01*
X74499555Y-35208187D01*
X74681588Y-35267332D01*
X74694716Y-35271598D01*
X74897397Y-35303700D01*
X74897398Y-35303700D01*
X75102602Y-35303700D01*
X75102603Y-35303700D01*
X75305284Y-35271598D01*
X75305287Y-35271597D01*
X75305288Y-35271597D01*
X75500444Y-35208187D01*
X75500447Y-35208186D01*
X75683288Y-35115024D01*
X75849303Y-34994406D01*
X75994406Y-34849303D01*
X76115024Y-34683288D01*
X76208186Y-34500447D01*
X76271598Y-34305284D01*
X76303700Y-34102603D01*
X76303700Y-33897397D01*
X113696300Y-33897397D01*
X113696300Y-34102602D01*
X113728402Y-34305285D01*
X113728402Y-34305288D01*
X113791812Y-34500444D01*
X113791813Y-34500447D01*
X113884976Y-34683288D01*
X114005594Y-34849303D01*
X114150697Y-34994406D01*
X114316712Y-35115024D01*
X114406390Y-35160717D01*
X114499552Y-35208186D01*
X114499555Y-35208187D01*
X114681588Y-35267332D01*
X114694716Y-35271598D01*
X114897397Y-35303700D01*
X114897398Y-35303700D01*
X115102602Y-35303700D01*
X115102603Y-35303700D01*
X115305284Y-35271598D01*
X115305287Y-35271597D01*
X115305288Y-35271597D01*
X115500444Y-35208187D01*
X115500447Y-35208186D01*
X115683288Y-35115024D01*
X115849303Y-34994406D01*
X115994406Y-34849303D01*
X116115024Y-34683288D01*
X116208186Y-34500447D01*
X116271598Y-34305284D01*
X116303700Y-34102603D01*
X116303700Y-33897397D01*
X116271598Y-33694716D01*
X116271597Y-33694712D01*
X116271597Y-33694711D01*
X116208187Y-33499555D01*
X116208186Y-33499552D01*
X116115023Y-33316711D01*
X116072858Y-33258676D01*
X115994406Y-33150697D01*
X115849303Y-33005594D01*
X115683288Y-32884976D01*
X115500447Y-32791813D01*
X115500444Y-32791812D01*
X115305286Y-32728402D01*
X115170163Y-32707000D01*
X115102603Y-32696300D01*
X114897397Y-32696300D01*
X114829836Y-32707000D01*
X114694714Y-32728402D01*
X114694711Y-32728402D01*
X114499555Y-32791812D01*
X114499552Y-32791813D01*
X114316711Y-32884976D01*
X114150695Y-33005595D01*
X114005595Y-33150695D01*
X113884976Y-33316711D01*
X113791813Y-33499552D01*
X113791812Y-33499555D01*
X113728402Y-33694711D01*
X113728402Y-33694714D01*
X113696300Y-33897397D01*
X76303700Y-33897397D01*
X76271598Y-33694716D01*
X76271597Y-33694712D01*
X76271597Y-33694711D01*
X76208187Y-33499555D01*
X76208186Y-33499552D01*
X76115023Y-33316711D01*
X76072858Y-33258676D01*
X75994406Y-33150697D01*
X75849303Y-33005594D01*
X75683288Y-32884976D01*
X75500447Y-32791813D01*
X75500444Y-32791812D01*
X75305286Y-32728402D01*
X75170163Y-32707000D01*
X75102603Y-32696300D01*
X74897397Y-32696300D01*
X74829836Y-32707000D01*
X74694714Y-32728402D01*
X74694711Y-32728402D01*
X74499555Y-32791812D01*
X74499552Y-32791813D01*
X74316711Y-32884976D01*
X74150695Y-33005595D01*
X74005595Y-33150695D01*
X73884976Y-33316711D01*
X73791813Y-33499552D01*
X73791812Y-33499555D01*
X73728402Y-33694711D01*
X73728402Y-33694714D01*
X73696300Y-33897397D01*
X70500500Y-33897397D01*
X70500500Y-33258676D01*
X70520185Y-33191637D01*
X70536819Y-33170995D01*
X73170995Y-30536819D01*
X73232318Y-30503334D01*
X73258676Y-30500500D01*
X116741324Y-30500500D01*
X116808363Y-30520185D01*
G37*
%TD.AperFunction*%
%TD*%
M02*
